
<svg version="1.1" id="Layer_1" xmlns="http://www.w3.org/2000/svg" xmlns:xlink="http://www.w3.org/1999/xlink" x="0px" y="0px"
	 viewBox="0 0 1024 223" style="enable-background:new 0 0 1024 223;" xml:space="preserve">
<style type="text/css">
	.st0{fill:#808080;}
	.st1{fill:none;stroke:#808080;stroke-width:2;stroke-miterlimit:10;}
	.st2{fill:#EB5E21;}
	.st3{fill:#F26529;}
</style>
<g>
	<path class="st0" d="M247.33,197H28V30.25h219.33V95.6l31.77,18.06l-31.77,16.46V197z M30,195h215.33v-66.09l29.58-15.33
		l-29.58-16.82V32.25H30V195z"/>
</g>
<polygon class="st1" points="498.33,196 281,196 281,31.25 498.33,31.25 498.33,96.19 529,113.63 498.33,129.52 "/>
<polygon class="st1" points="750.33,196 533,196 533,31.25 750.33,31.25 750.33,96.19 781,113.63 750.33,129.52 "/>
<polygon class="st1" points="1004.33,196 787,196 787,31.25 1004.33,31.25 1004.33,96.19 1004.33,129.52 "/>
<g>
	<polygon class="st2" points="66.11,45 42.13,56.47 66.11,56.47 90.09,56.47 	"/>
	<rect x="49.5" y="57.57" class="st2" width="6.92" height="21.72"/>
	<rect x="62.66" y="57.57" class="st2" width="6.92" height="21.72"/>
	<rect x="75.65" y="57.57" class="st2" width="6.92" height="21.72"/>
	<rect x="45.13" y="80.04" class="st2" width="42.17" height="2.56"/>
	<rect x="40.55" y="83.44" class="st2" width="51.35" height="2.56"/>
</g>
<g>
	<g>
		<path class="st2" d="M141.04,95.62c1.4,0,2.54-1.14,2.54-2.54c0-1.4-1.14-2.54-2.54-2.54c-1.4,0-2.54,1.14-2.54,2.54
			C138.5,94.48,139.63,95.62,141.04,95.62z"/>
		<path class="st2" d="M144.69,117.56v-7.38c0-0.06,0-0.12-0.01-0.17c1.1-0.16,1.96-1.11,1.96-2.25v-8.95
			c0-1.25-1.03-2.28-2.28-2.28h-6.65c-1.25,0-2.28,1.03-2.28,2.28v8.95c0,1.14,0.85,2.09,1.96,2.25c-0.01,0.06-0.01,0.12-0.01,0.17
			v7.38c-3.37,0.56-5.73,1.87-5.73,3.39c0,2.03,4.2,3.68,9.38,3.68s9.38-1.65,9.38-3.68C150.42,119.43,148.06,118.12,144.69,117.56z
			"/>
	</g>
	<g>
		<circle class="st2" cx="127.78" cy="97.74" r="1.21"/>
		<path class="st2" d="M129.52,108.72v-2.83c0-0.03,0-0.06,0-0.08c0.52-0.08,0.93-0.53,0.93-1.07v-4.26c0-0.6-0.49-1.09-1.09-1.09
			h-3.17c-0.6,0-1.09,0.49-1.09,1.09v4.26c0,0.54,0.41,1,0.93,1.07c0,0.03,0,0.05,0,0.08v2.88c-1.91,0.3-3.26,1.03-3.26,1.88
			c0,1.12,2.32,2.03,5.18,2.03c2.86,0,5.18-0.91,5.18-2.03C133.14,109.74,131.61,108.98,129.52,108.72z"/>
	</g>
	<g>
		<circle class="st2" cx="116.38" cy="108.13" r="1.86"/>
		<path class="st2" d="M119.06,125.87v-5.22c0-0.04,0-0.09-0.01-0.13c0.81-0.12,1.43-0.81,1.43-1.65v-6.55
			c0-0.92-0.75-1.67-1.67-1.67h-4.86c-0.92,0-1.67,0.75-1.67,1.67v6.55c0,0.84,0.63,1.53,1.43,1.65c0,0.04-0.01,0.08-0.01,0.13v5.19
			c-2.75,0.41-4.71,1.45-4.71,2.67c0,1.58,3.26,2.86,7.28,2.86c4.02,0,7.28-1.28,7.28-2.86C123.56,127.32,121.7,126.3,119.06,125.87
			z"/>
	</g>
	<g>
		<circle class="st2" cx="166.42" cy="108.13" r="1.86"/>
		<path class="st2" d="M169.09,125.87v-5.22c0-0.04,0-0.09-0.01-0.13c0.81-0.12,1.43-0.81,1.43-1.65v-6.55
			c0-0.92-0.75-1.67-1.67-1.67h-4.86c-0.92,0-1.67,0.75-1.67,1.67v6.55c0,0.84,0.63,1.53,1.43,1.65c0,0.04-0.01,0.08-0.01,0.13v5.19
			c-2.75,0.41-4.71,1.45-4.71,2.67c0,1.58,3.26,2.86,7.28,2.86c4.02,0,7.28-1.28,7.28-2.86C173.6,127.32,171.74,126.3,169.09,125.87
			z"/>
	</g>
	<g>
		<path class="st2" d="M154.3,98.95c0.67,0,1.21-0.54,1.21-1.21c0-0.67-0.54-1.21-1.21-1.21c-0.67,0-1.21,0.54-1.21,1.21
			C153.09,98.41,153.63,98.95,154.3,98.95z"/>
		<path class="st2" d="M156.04,108.74v-2.85c0-0.03,0-0.06,0-0.08c0.52-0.08,0.93-0.53,0.93-1.07v-4.26c0-0.6-0.49-1.09-1.09-1.09
			h-3.17c-0.6,0-1.09,0.49-1.09,1.09v4.26c0,0.54,0.41,1,0.93,1.07c0,0.03,0,0.05,0,0.08v2.85c-2,0.28-3.44,1.02-3.44,1.91
			c0,1.12,2.32,2.03,5.18,2.03c2.86,0,5.18-0.91,5.18-2.03C159.48,109.77,158.04,109.02,156.04,108.74z"/>
	</g>
	<line class="st2" x1="129.98" y1="112.48" x2="135.89" y2="117.88"/>
	<line class="st2" x1="133.14" y1="122.94" x2="123.56" y2="128.51"/>
	<line class="st2" x1="148.43" y1="123.22" x2="159.04" y2="128.51"/>
	<line class="st2" x1="146.64" y1="117.88" x2="153.09" y2="112.68"/>
</g>
<path class="st2" d="M226.65,69.4h-0.14c0.37,0,0.29-0.09,0.29-0.46v-1.11c0-0.07,0-0.12,0-0.18c0.37-0.33,0.61-0.81,0.61-1.35
	c0-0.97-0.76-1.75-1.72-1.79v-3.26l4.63-1.41l-0.13-2.46l-25.91-5.81l-0.13,0.03l-0.13-0.03L178,57.38l0.39,0.12v2.34l11.82,3.61
	l-3.08,12.47l17.12,4.75l16.94-4.8l-3.05-12.32l6.47-1.97v3.23c-0.47,0.32-0.79,0.87-0.79,1.49c0,0.36,0.11,0.7,0.3,0.99
	c-0.31,0.11-0.61,0.3-0.61,0.54v1.11c0,0.37,0.71,0.46,1.08,0.46h0.05c-0.37,0-0.67,0.4-0.67,0.77l-0.67,7.14
	c0,0.37,0.3,0.9,0.67,0.9h3.35c0.37,0,0.67-0.53,0.67-0.9l-0.67-7.14C227.32,69.79,227.02,69.4,226.65,69.4z"/>
<g>
	<path class="st2" d="M79.34,162.5h-0.06c0.16,0,0.12-0.04,0.12-0.19v-0.47c0-0.03,0-0.05,0-0.08c0.16-0.14,0.26-0.34,0.26-0.57
		c0-0.41-0.32-0.74-0.72-0.76v-1.37l1.95-0.59l-0.06-1.04l-10.93-2.45L69.85,155l-0.06-0.01l-10.98,2.45l0.16,0.05v0.99l4.98,1.52
		l-1.3,5.26l7.22,2l7.15-2.03l-1.29-5.2l2.73-0.83v1.36c-0.2,0.14-0.33,0.37-0.33,0.63c0,0.15,0.05,0.3,0.12,0.42
		c-0.13,0.05-0.26,0.13-0.26,0.23v0.47c0,0.16,0.3,0.19,0.46,0.19h0.02c-0.16,0-0.28,0.17-0.28,0.32l-0.28,3.01
		c0,0.16,0.13,0.38,0.28,0.38h1.41c0.16,0,0.28-0.22,0.28-0.38l-0.28-3.01C79.62,162.67,79.49,162.5,79.34,162.5z"/>
	<path class="st2" d="M91.92,162.93c0.07-0.86,0.1-1.72,0.07-2.6c-0.02-0.85-0.11-1.69-0.23-2.51l-4.37-0.72l-1.48-4.13l2.91-3.34
		c-0.88-1.47-1.93-2.82-3.12-4.04l-3.96,1.99l-3.63-2.47l0.39-4.42c-1.51-0.64-3.1-1.11-4.75-1.4l-2.06,3.93l-4.39,0.1l-2.26-3.82
		c-1.69,0.38-3.3,0.96-4.82,1.7l0.65,4.39l-3.49,2.67l-4.07-1.76c-1.12,1.28-2.09,2.69-2.89,4.21l3.1,3.17l-1.25,4.21l-4.32,0.97
		c-0.08,0.87-0.11,1.76-0.08,2.67c0.03,0.83,0.1,1.63,0.22,2.43l4.37,0.74l1.47,4.14l-2.93,3.33c0.89,1.47,1.93,2.84,3.12,4.06
		l3.97-1.98l3.62,2.48l-0.41,4.42c1.55,0.66,3.19,1.15,4.9,1.44l2.05-3.94l4.39-0.12l2.26,3.82c1.69-0.39,3.3-0.97,4.81-1.72
		l-0.66-4.39l3.48-2.69l4.07,1.75c1.12-1.29,2.09-2.7,2.88-4.21l-3.11-3.15l1.23-4.22L91.92,162.93z M69.85,174.78
		c-7.54,0-13.66-6.12-13.66-13.66s6.12-13.66,13.66-13.66s13.66,6.12,13.66,13.66S77.4,174.78,69.85,174.78z"/>
</g>
<g>
	<path class="st2" d="M222.3,138.24c-5.36,0-9.7,4.34-9.7,9.7c0,5.36,4.34,9.7,9.7,9.7s9.7-4.34,9.7-9.7
		C232,142.58,227.66,138.24,222.3,138.24z M222.3,156.76c-0.42,0-0.83-0.03-1.24-0.09l6.66-8.94l-6.53-4.87l-6.76,9.07
		c-0.61-1.2-0.95-2.55-0.95-3.99c0-4.87,3.95-8.82,8.82-8.82s8.82,3.95,8.82,8.82S227.17,156.76,222.3,156.76z"/>
	<path class="st2" d="M226.68,157.55c-1.32,0.56-2.77,0.87-4.29,0.87c-1.36,0-2.66-0.25-3.87-0.71c-3.18,4.18-7.48,9.86-8.34,11.07
		l-1.15,1.22l-0.67,0.13c-0.19,0.04-0.37,0.06-0.55,0.06c-1.14,0-1.9-0.78-3.05-1.98c-0.64-0.66-1.5-1.57-2.56-2.72
		c-1.79-1.94-3.57-3.92-3.59-3.94l3.8-3.41c1.78,1.98,3.74,4.12,5.14,5.6c1.26-1.69,3.33-4.43,6.74-8.91
		c-1.77-1.94-2.84-4.52-2.84-7.35c0-2.08,0.58-4.03,1.59-5.69c-1.44-0.37-2.95-0.56-4.5-0.56c-10.07,0-18.23,8.16-18.23,18.23
		c0,10.07,8.16,18.23,18.23,18.23c10.07,0,18.23-8.16,18.23-18.23C226.78,158.82,226.75,158.18,226.68,157.55z"/>
</g>
<g>
	<path class="st2" d="M400.08,74.64l-3.3-3.3c3.49-4.42,3.2-10.85-0.88-14.93c-4.39-4.39-11.52-4.39-15.91,0
		c-4.39,4.39-4.39,11.52,0,15.91c4.08,4.08,10.51,4.37,14.93,0.88l3.3,3.3L400.08,74.64z M394.73,71.15
		c-3.75,3.75-9.82,3.75-13.57,0c-3.75-3.75-3.75-9.82,0-13.57c3.75-3.75,9.82-3.75,13.57,0C398.48,61.33,398.48,67.4,394.73,71.15z"
		/>
	<path class="st2" d="M394.31,58c-3.51-3.51-9.22-3.51-12.73,0c-3.51,3.51-3.51,9.22,0,12.73c3.51,3.51,9.22,3.51,12.73,0
		C397.82,67.22,397.82,61.51,394.31,58z M393.93,70.35c-3.3,3.3-8.67,3.3-11.97,0c-3.3-3.3-3.3-8.67,0-11.97
		c3.3-3.3,8.67-3.3,11.97,0C397.23,61.68,397.23,67.05,393.93,70.35z"/>
	<path class="st2" d="M403.8,73.81c-0.55-0.55-1.44-0.55-2,0l-4.41,4.41c-0.55,0.55-0.55,1.44,0,2c0.55,0.55,1.44,0.55,2,0
		l4.42-4.42C404.35,75.26,404.35,74.36,403.8,73.81z"/>
	<path class="st2" d="M409.33,81.88l-5.32-5.32l-3.87,3.87l5.32,5.32c1.07,1.07,2.8,1.07,3.87,0
		C410.4,84.69,410.4,82.95,409.33,81.88z"/>
</g>
<g>
	<g>
		<path class="st2" d="M477.03,78.22h-39.54V53.69h39.54V78.22z M437.69,78.01h39.14V53.89h-39.14V78.01z"/>
	</g>
	<path class="st2" d="M478.84,79.85c0.02-0.33,0.03-0.73,0.03-1.22v-23.8c0-2.61-0.13-2.74-2.74-2.74h-37.64
		c-2.59,0-2.74,0.31-2.74,2.74v23.8c0,0.49,0,0.89,0.03,1.22h-3.75v0c0,0.92,0.75,1.66,1.66,1.66h47.13c0.92,0,1.66-0.75,1.66-1.66
		v0H478.84z M436.36,78.63v-23.8c0-1,0-1.61,0.22-1.85c0.22-0.24,0.81-0.28,1.91-0.28h37.64c1.06,0,1.7,0,1.91,0.22
		s0.22,0.85,0.22,1.91v23.8c0,0.5,0,0.9-0.02,1.22h-16.18c-0.1,0.48-0.53,0.84-1.04,0.84h-7.13c-0.51,0-0.94-0.36-1.04-0.84h-16.46
		C436.36,79.54,436.36,79.13,436.36,78.63z"/>
</g>
<path class="st2" d="M339.7,138.63c-3.01-11.77-19.31-14.13-29.1-8.67c-9.8,5.46-5.87,15.01-5.56,16.67
	c0.31,1.66-2.42,5.56-3.23,6.94c-0.82,1.38-0.44,1.88,0.88,2.43c1.32,0.55,0.75,0.61,0.8,1.44c0.05,0.83,1.3,0.88,1.3,0.88
	s-0.77,0.17-0.75,0.94c0.02,0.77,1.18,1.37,1.18,1.37c0.76,0.75-0.38,1.74,0.75,3.51c1.13,1.77,1.58,0.38,6.29,0.19
	c4.71-0.19,4.48,6.5,4.48,6.5l-0.01,0.57h16.77c-4.24-5.09-0.28-12.53-0.28-12.53S342.71,150.41,339.7,138.63z M328.23,155.09
	c-2.5-0.12-4.84-1.18-5.88-3.49c0.5,0.15,1.23,0.32,2.03,0.39c1.45,0.12,3.15-0.11,4.27-1.47c0.01-0.02,0.03-0.03,0.04-0.05
	c0.62-1.01,0.79-1.89,0.52-2.64c-0.33-0.93-1.23-1.24-1.27-1.26c-0.23-0.08-0.49,0.04-0.57,0.28c-0.08,0.23,0.04,0.49,0.28,0.57
	c0.01,0,0.53,0.19,0.72,0.71c0.17,0.47,0.02,1.1-0.43,1.84c-1.8,2.14-5.78,0.63-5.95,0.57c-0.01-0.05-0.02-0.1-0.04-0.15
	c0,0-5.95,0.4-6.45-4.04c0.11-0.09,0.18-0.23,0.17-0.38c-0.01-0.13-0.19-3.12,3.21-3.73c0.19-0.03,0.34-0.19,0.36-0.38
	c0-0.02,0.26-1.8,1.73-2.1c1.54-0.31,2.59,0.59,2.64,0.63c0.16,0.14,0.39,0.15,0.56,0.02c0.12-0.09,2.98-2.15,5.49,0.91
	c0.16,0.19,0.44,0.22,0.63,0.06c0.19-0.16,0.22-0.44,0.06-0.63c-1.18-1.44-2.44-1.93-3.55-1.99c0.04-0.66,0.31-2.69,2.21-3.18
	c1.44-0.37,3.12,0.06,4.08,1.05c0.79,0.81,1.02,1.91,0.66,3.18c-0.05,0.18,0.02,0.37,0.17,0.48c0.01,0.01,1.18,0.87,0.92,2.75
	c-0.09,0.68-0.45,1.18-1.02,1.44c-0.82,0.38-1.96,0.24-2.91-0.36c-2.05-1.3-5.08-1.33-6.6-0.05c-0.74,0.62-1.81,1.42-2.54,1.25
	c-0.33-0.07-0.6-0.34-0.83-0.83c-0.11-0.22-0.37-0.32-0.59-0.21c-0.22,0.11-0.32,0.37-0.21,0.59c0.35,0.74,0.84,1.18,1.45,1.32
	c0.08,0.02,0.16,0.03,0.24,0.04c1.03,0.08,2.12-0.69,3.06-1.48c1.21-1.01,3.86-0.95,5.55,0.12c1.2,0.76,2.67,0.92,3.76,0.42
	c0.85-0.39,1.39-1.15,1.53-2.13c0.26-1.86-0.6-2.96-1.04-3.39c0.34-1.46,0-2.79-0.95-3.77c-1.17-1.2-3.18-1.73-4.91-1.3
	c-0.05-0.64-0.31-1.32-0.74-1.91c-0.46-0.63-1.33-1.43-2.85-1.68c-1.83-0.3-3.11,0.68-3.74,1.5c-0.53-0.35-1.55-0.74-3.26-0.33
	c-1.79,0.42-2.53,1.7-2.75,2.63c-1.27-0.45-2.67-0.29-3.69,0.5c-1.11,0.86-1.45,2.21-0.9,3.63c0.31,0.76,0.8,1.28,1.45,1.56
	c1.19,0.49,2.48-0.04,2.53-0.06c0.23-0.1,0.33-0.36,0.24-0.58c-0.1-0.23-0.36-0.33-0.58-0.24c-0.01,0-1.01,0.41-1.85,0.06
	c-0.43-0.18-0.75-0.53-0.96-1.06c-0.4-1.04-0.18-1.99,0.62-2.6c0.84-0.65,2.36-0.89,3.73,0.1c2.29,1.65,2.06,5.08,2.05,5.26
	c-1.8,0.5-2.64,1.64-3.02,2.65c-1.19,0.16-3.95,0.12-5.82-3.11c-2.44-4.21,0.28-8.14,3.62-8.49c0,0,1.67-4.58,7.51-2.66
	c0,0,4.21-3.08,8.33,0.92c0,0,3.18-0.49,5.67,2.25c1.61,1.89,1.85,3.66,1.85,3.66s2.08,1.4,2.2,5.07c0.12,3.67-2.05,5.51-3.68,5.75
	c0,0,0.85,3.95-3.08,5.5C331.7,153.04,331.13,155.23,328.23,155.09z M316.59,135.52c-0.09-0.06-0.18-0.12-0.27-0.18
	c0.07-0.47,0.42-1.76,2.12-2.16c2.07-0.49,2.76,0.36,2.79,0.39c0.09,0.13,0.24,0.2,0.39,0.19c0.15-0.01,0.29-0.1,0.37-0.24
	c0.04-0.08,1.01-1.84,3.11-1.5c2.28,0.37,2.91,2.25,2.84,3.05c-1.55,0.85-2.01,2.66-2.03,3.75c-0.89,0.13-1.6,0.48-1.98,0.7
	c-0.5-0.34-1.64-0.93-3.13-0.63c-0.88,0.18-1.45,0.7-1.82,1.24C318.83,138.78,318.32,136.77,316.59,135.52z"/>
<g>
	<path class="st2" d="M392.34,148.82c-9.98-5.6-19.69,0.05-19.69,0.05l1.48,25.7h16c-0.03,0.1-0.05,0.2-0.05,0.31
		c0,0.85,1.05,1.54,2.35,1.54c1.3,0,2.35-0.69,2.35-1.54c0-0.11-0.02-0.21-0.05-0.31h15.82l1.48-25.7
		C412.03,148.87,402.32,143.22,392.34,148.82z M391.24,172.59c-8.28-3.3-15.75,0-15.75,0l-1.28-22.13c0,0,8.41-4.89,17.03,0V172.59z
		 M409.2,172.59c0,0-7.48-3.3-15.75,0v-22.13c8.62-4.89,17.03,0,17.03,0L409.2,172.59z"/>
	<polygon class="st2" points="392.34,133.93 370.34,144.77 371.21,146.55 392.33,136.14 413.48,146.79 414.37,145.02 	"/>
</g>
<g>
	<path class="st2" d="M459.06,167.42c-0.07,0.11-0.15,0.23-0.22,0.34c-0.24,0.37-0.5,0.7-0.75,1.01c-0.13,0.02-0.26,0.03-0.39,0.04
		c-0.23,0.03-0.46,0.05-0.7,0.08c0.12-0.23,0.24-0.47,0.35-0.71c0.15-0.33,0.3-0.67,0.43-1.03c0.02-0.07,0.05-0.13,0.07-0.2
		c0.43-0.04,0.84-0.1,1.26-0.16c0.03-0.43,0.07-0.9,0.11-1.44c-0.29,0.03-0.57,0.07-0.86,0.09c0.02-0.08,0.05-0.16,0.07-0.24
		c-0.39-0.01-0.79-0.02-1.19-0.05c-0.03,0.13-0.06,0.27-0.09,0.4c-0.34,0.02-0.69,0.04-1.04,0.05c-0.25,0.01-0.5,0.03-0.75,0.04
		c0.04-0.21,0.08-0.43,0.12-0.65c-0.37-0.04-0.74-0.09-1.11-0.15c-0.03,0.23-0.05,0.46-0.08,0.68c-0.01,0.05-0.01,0.1-0.02,0.15
		c0,0-0.01,0-0.01,0c-0.2,0-0.41,0-0.61,0c-0.19,0-0.38,0-0.56,0c-0.02,0-0.04,0-0.06,0c-0.04-0.35-0.08-0.72-0.13-1.09
		c-0.4-0.08-0.8-0.17-1.2-0.27c0.08,0.46,0.16,0.91,0.24,1.33c-0.14-0.01-0.27-0.02-0.41-0.02c-0.4-0.02-0.8-0.04-1.19-0.07
		c-0.07,0-0.13-0.01-0.2-0.01c-0.13-0.53-0.26-1.08-0.37-1.66c-0.01-0.03-0.01-0.07-0.02-0.1c-0.46-0.14-0.92-0.3-1.37-0.46
		c0.03,0.15,0.07,0.31,0.11,0.46c0.14,0.57,0.28,1.13,0.44,1.66c-0.15-0.02-0.3-0.04-0.46-0.05c-0.44-0.05-0.87-0.11-1.3-0.17
		c-0.05-0.01-0.1-0.01-0.15-0.02c-0.24-0.53-0.46-1.1-0.67-1.68c-0.13-0.38-0.26-0.77-0.38-1.17c-0.56-0.26-1.11-0.53-1.65-0.82
		c0.02,0.07,0.04,0.14,0.07,0.22c0.15,0.52,0.31,1.02,0.49,1.51c0.21,0.59,0.44,1.16,0.69,1.7c-0.19-0.04-0.37-0.08-0.55-0.11
		c-0.35-0.07-0.69-0.15-1.02-0.23c-0.58-1-1.1-2.11-1.54-3.3c-0.05-0.15-0.11-0.29-0.17-0.44c0.07,0.03,0.15,0.05,0.23,0.07
		c0.49,0.17,1.01,0.32,1.54,0.47c0.03,0.01,0.07,0.02,0.1,0.03c-1.42-0.78-2.77-1.67-4.02-2.7c-0.04-0.02-0.08-0.04-0.12-0.06
		c-0.38-0.17-0.75-0.34-1.09-0.52c-0.15-0.08-0.29-0.15-0.43-0.23c-0.08-0.3-0.16-0.6-0.22-0.9c-0.66-0.67-1.27-1.39-1.83-2.15
		c0.04,0.37,0.09,0.74,0.15,1.1c0.04,0.26,0.09,0.51,0.14,0.77c-0.03-0.03-0.06-0.06-0.1-0.08c-0.5-0.41-0.9-0.83-1.2-1.2
		c-0.14-0.81-0.22-1.64-0.25-2.49c-0.54-0.92-1-1.9-1.39-2.93c-0.09,0.74-0.13,1.5-0.13,2.26c0,1.11,0.09,2.21,0.28,3.27
		c0.08,0.46,0.17,0.91,0.28,1.35c0.13,0.54,0.28,1.07,0.45,1.59c0.65,1.94,1.57,3.71,2.67,5.23c0.06,0.08,0.12,0.16,0.18,0.24
		c2.16,2.93,4.88,4.89,7.36,6.04c1.28,0.58,2.47,0.97,3.54,1.23c0.91,0.26,1.85,0.45,2.81,0.58c0.21,0.03,0.41,0.05,0.62,0.07
		c0.31,0.03,0.62,0.05,0.94,0.07c0.27,0.01,0.55,0.02,0.83,0.03c0.08,0,0.16,0,0.24,0c0.21,0,0.42-0.01,0.62-0.02
		c0.05,0,0.1,0,0.16,0c3.13-0.12,6.09-0.97,8.68-2.39c1.31-0.69,2.67-1.62,3.95-2.79c0.86-0.78,1.68-1.67,2.43-2.67
		c-3.44,2.38-7.02,4.39-10.79,6.11C458.94,169.1,459,168.28,459.06,167.42z M438.24,162.3c-0.11-0.08-0.23-0.15-0.33-0.23
		c-0.98-1.59-1.72-3.33-2.19-5.18c0.31,0.35,0.69,0.72,1.12,1.07c0.07,0.06,0.13,0.11,0.2,0.16c0.12,0.43,0.25,0.86,0.39,1.28
		c0.18,0.52,0.38,1.03,0.59,1.52c0.26,0.61,0.54,1.2,0.84,1.76C438.63,162.56,438.43,162.43,438.24,162.3z M440.42,165.28
		c-0.41-0.42-0.8-0.86-1.17-1.31c0.18,0.11,0.37,0.22,0.58,0.32c0.24,0.37,0.5,0.71,0.76,1.05c0.15,0.2,0.31,0.39,0.46,0.58
		C440.83,165.71,440.63,165.49,440.42,165.28z M441.62,163.9c-0.2-0.07-0.39-0.14-0.58-0.21c-0.83-1.29-1.56-2.74-2.11-4.31
		c0.43,0.24,0.89,0.47,1.37,0.69c0.09,0.04,0.18,0.08,0.27,0.12c0.07,0.21,0.14,0.41,0.21,0.62c0.18,0.52,0.37,1.03,0.58,1.52
		c0.26,0.62,0.55,1.21,0.85,1.77C442.01,164.03,441.81,163.96,441.62,163.9z M444.55,167.7c-0.01,0-0.02-0.01-0.04-0.01
		c-0.61-0.51-1.2-1.09-1.77-1.74c-0.08-0.09-0.16-0.19-0.24-0.28c-0.09-0.11-0.19-0.21-0.28-0.33c0.04,0.01,0.08,0.03,0.12,0.04
		c0.26,0.09,0.53,0.19,0.8,0.27c0.1,0.16,0.21,0.31,0.32,0.46c0.42,0.59,0.86,1.14,1.32,1.64c0.01,0.01,0.02,0.02,0.03,0.03
		C444.72,167.76,444.63,167.73,444.55,167.7z M446.97,168.36c-0.1-0.09-0.2-0.18-0.3-0.28c-0.58-0.55-1.14-1.19-1.67-1.91
		c0.19,0.04,0.38,0.08,0.57,0.12c0.25,0.06,0.49,0.11,0.74,0.16c0.03,0.06,0.06,0.11,0.1,0.16c0.32,0.56,0.66,1.08,1.02,1.56
		c0.05,0.07,0.1,0.14,0.15,0.2c0.03,0.04,0.06,0.08,0.1,0.12C447.44,168.46,447.2,168.41,446.97,168.36z M449.35,168.76
		c-0.06-0.01-0.13-0.01-0.19-0.02c-0.25-0.3-0.49-0.62-0.73-0.97c-0.22-0.33-0.44-0.68-0.65-1.05c0.33,0.05,0.67,0.09,1.01,0.13
		c0.12,0.02,0.24,0.03,0.36,0.05c0.09,0.01,0.17,0.02,0.26,0.03c0.03,0.07,0.05,0.15,0.08,0.22c0.17,0.45,0.36,0.87,0.55,1.27
		c0.07,0.15,0.14,0.31,0.22,0.45C449.95,168.84,449.65,168.8,449.35,168.76z M450.94,170.38c0.11,0.01,0.23,0.02,0.35,0.03
		c0.12,0.14,0.24,0.28,0.36,0.4C451.42,170.69,451.18,170.55,450.94,170.38z M451.28,168.95c-0.26-0.55-0.51-1.2-0.73-1.91
		c0.55,0.04,1.11,0.08,1.68,0.09c0.11,0.49,0.22,0.94,0.32,1.36c0.04,0.16,0.08,0.31,0.12,0.45c0.01,0.02,0.01,0.05,0.02,0.08
		c-0.01,0-0.02,0-0.03,0c-0.25-0.01-0.49-0.02-0.73-0.04C451.72,168.97,451.5,168.97,451.28,168.95z M452.6,170.92
		c-0.08-0.07-0.16-0.15-0.24-0.25c-0.05-0.06-0.11-0.12-0.16-0.19c0.31,0.02,0.62,0.03,0.94,0.03c0.06,0.16,0.11,0.31,0.16,0.44
		C453.06,170.94,452.83,170.93,452.6,170.92z M453.63,170.53L453.63,170.53L453.63,170.53L453.63,170.53z M453.82,169.04
		c-0.08,0-0.17,0-0.25,0c-0.02,0-0.05,0-0.07,0h-0.04c-0.07-0.55-0.16-1.18-0.25-1.88c0.14,0,0.29,0,0.43,0c0.15,0,0.29,0,0.43,0
		c-0.06,0.47-0.12,0.9-0.17,1.3C453.87,168.66,453.84,168.85,453.82,169.04z M454.91,170.67c-0.09,0.1-0.18,0.19-0.27,0.27
		c-0.22,0.01-0.44,0.02-0.67,0.02c0.05-0.13,0.1-0.27,0.16-0.44c0.32-0.01,0.63-0.02,0.94-0.03
		C455.02,170.55,454.96,170.61,454.91,170.67z M455.62,170.81c0.12-0.12,0.24-0.25,0.36-0.39c0.11-0.01,0.23-0.02,0.34-0.03
		C456.08,170.56,455.85,170.7,455.62,170.81z M455.98,168.97c-0.27,0.02-0.54,0.02-0.81,0.03c-0.2,0.01-0.39,0.02-0.6,0.03
		c0.05-0.19,0.11-0.4,0.16-0.61c0.1-0.4,0.2-0.82,0.3-1.28c0.57-0.02,1.13-0.05,1.68-0.09
		C456.49,167.77,456.24,168.41,455.98,168.97z"/>
	<path class="st2" d="M473.53,154.28c0.07-0.65,0.1-1.31,0.1-1.98c0.01-4.35-1.48-8.42-3.67-11.45c-1.41-1.98-3.08-3.52-4.77-4.69
		c-3.21-2.27-7.13-3.6-11.36-3.6c-2.14,0-4.21,0.34-6.14,0.97c-0.87,0.25-1.82,0.59-2.83,1.04c-0.81,0.38-1.64,0.84-2.47,1.39
		c-0.18,0.07-0.39,0.19-0.63,0.36c-0.1,0.07-0.22,0.18-0.33,0.31c-0.93,0.71-1.85,1.53-2.71,2.48c-0.48,0.54-0.95,1.11-1.39,1.73
		c-0.51,0.7-0.98,1.46-1.4,2.27c-0.07-0.17-0.14-0.35-0.21-0.53c-0.69-1.72-1.2-3.63-1.5-5.75c-0.34,1.99-0.45,3.86-0.36,5.62
		c0.74,14.8,15.58,21.51,26.73,21.41c-0.16,2.01-0.23,3.01-0.36,5.02c6.65-3.02,12.71-6.97,18.45-12.23
		c0.48-0.43,0.95-0.87,1.42-1.33C477.83,155.14,475.65,154.78,473.53,154.28z M465.9,138.28c1.05,0.95,2.05,2.06,2.94,3.36
		c0.05,0.08,0.11,0.16,0.16,0.24c-0.09,0.12-0.21,0.23-0.35,0.35c-0.02,0.01-0.03,0.03-0.04,0.04c-0.07-0.13-0.14-0.25-0.2-0.37
		c-0.08-0.15-0.16-0.31-0.25-0.46c-0.67-1.17-1.44-2.21-2.26-3.13L465.9,138.28z M464.99,139.19c0.78,0.96,1.49,2.05,2.12,3.24
		c0.1,0.18,0.19,0.36,0.29,0.54c-0.12,0.06-0.25,0.11-0.37,0.17c-0.21,0.09-0.43,0.18-0.66,0.27c-0.5-1.36-1.11-2.63-1.79-3.76
		c-0.01-0.01-0.01-0.02-0.01-0.03c-0.03-0.04-0.05-0.08-0.07-0.12C464.66,139.41,464.83,139.3,464.99,139.19z M462.19,136.45
		c0.74,0.56,1.47,1.23,2.16,2c-0.13,0.07-0.28,0.13-0.44,0.19c-0.59-0.86-1.23-1.63-1.9-2.29c-0.04-0.04-0.08-0.09-0.13-0.13
		C461.99,136.29,462.09,136.37,462.19,136.45z M459.23,135.35c0.33,0.24,0.66,0.51,0.99,0.8c0.88,0.77,1.72,1.74,2.48,2.89
		c-0.1,0.03-0.2,0.05-0.31,0.08c-0.12,0.03-0.24,0.06-0.36,0.09c-0.15,0.04-0.31,0.07-0.46,0.11c-0.27-0.57-0.56-1.11-0.86-1.61
		c-0.01-0.02-0.03-0.05-0.04-0.07c-0.31-0.51-0.64-0.99-0.98-1.43c-0.21-0.28-0.44-0.55-0.66-0.79
		C459.09,135.39,459.16,135.37,459.23,135.35z M456.45,134.28c-0.01,0-0.01,0-0.02,0c-0.11,0.01-0.22,0.02-0.33,0.02
		c-0.03-0.04-0.06-0.07-0.08-0.1c-0.13-0.16-0.26-0.31-0.39-0.43C455.88,133.91,456.16,134.08,456.45,134.28z M454.61,133.62
		c0.1,0.08,0.2,0.18,0.3,0.3c0.04,0.04,0.08,0.09,0.12,0.14c0.08,0.09,0.15,0.19,0.23,0.3c-0.34,0.01-0.68,0.02-1.02,0.03
		c-0.05-0.15-0.1-0.3-0.14-0.43c-0.05-0.13-0.09-0.25-0.13-0.35C454.18,133.6,454.39,133.61,454.61,133.62z M454.79,145.42
		c-0.36,0.01-0.72,0.01-1.09,0.01c-0.09,0-0.17,0-0.26,0c-0.35,0-0.71-0.01-1.06-0.02c0.06-0.89,0.13-1.75,0.21-2.58
		c0.04-0.46,0.09-0.91,0.13-1.34c0.24,0.01,0.48,0.01,0.72,0.02c0.37,0,0.73-0.01,1.09-0.02c0.04,0.41,0.08,0.84,0.12,1.27
		c0.08,0.85,0.15,1.73,0.22,2.66C454.85,145.42,454.82,145.42,454.79,145.42z M454.97,146.9c0.07,1.24,0.12,2.53,0.14,3.86
		c-0.45,0.01-0.91,0.01-1.37,0.01c-0.03,0-0.05,0-0.08,0c-0.51,0-1.01-0.01-1.51-0.03c0.02-0.85,0.05-1.68,0.08-2.49
		c0.02-0.46,0.04-0.92,0.06-1.36c0.47,0.01,0.94,0.03,1.41,0.03C454.13,146.92,454.55,146.91,454.97,146.9z M453.63,134.06
		c0.01,0.1,0.03,0.21,0.04,0.32h-0.01c-0.02,0-0.04,0-0.06,0C453.61,134.27,453.62,134.16,453.63,134.06z M453.66,136.02
		c0.07,0,0.15,0,0.22,0c0.05,0.39,0.11,0.82,0.17,1.28c0.11,0.81,0.22,1.73,0.33,2.73c-0.14,0-0.29,0-0.43,0c-0.17,0-0.33,0-0.5,0
		c-0.19,0-0.38,0-0.57-0.01c0,0,0,0,0,0c0,0,0,0,0,0c0.18-1.56,0.35-2.91,0.5-4C453.48,136.01,453.57,136.02,453.66,136.02z
		 M452.36,133.92c0.01-0.01,0.02-0.02,0.02-0.02c0.09-0.1,0.17-0.18,0.26-0.25c0.22-0.02,0.44-0.03,0.67-0.03
		c-0.03,0.09-0.07,0.19-0.11,0.3c-0.05,0.14-0.1,0.3-0.16,0.48c-0.34-0.01-0.69-0.02-1.02-0.03
		C452.13,134.19,452.24,134.04,452.36,133.92z M451.38,133.92c0.09-0.05,0.18-0.11,0.26-0.15c-0.05,0.04-0.09,0.09-0.13,0.14
		c-0.11,0.12-0.23,0.25-0.34,0.39c-0.11-0.01-0.23-0.02-0.35-0.02C451.02,134.14,451.2,134.03,451.38,133.92z M448.43,136.82
		c0.29-0.43,0.58-0.81,0.89-1.16c0.29,0.06,0.59,0.1,0.89,0.14c-0.26,0.49-0.5,1.04-0.72,1.63c-0.27,0.72-0.53,1.5-0.76,2.35
		c-0.3-0.03-0.6-0.07-0.9-0.1c-0.3-0.04-0.6-0.08-0.89-0.13c0.41-0.93,0.86-1.77,1.34-2.51
		C448.34,136.97,448.38,136.89,448.43,136.82z M447.05,136.15c0.34-0.3,0.67-0.57,1-0.82c0.07,0.03,0.14,0.05,0.2,0.07
		c-0.23,0.25-0.45,0.51-0.67,0.8c-0.69,0.89-1.32,1.93-1.88,3.11c-0.19-0.04-0.38-0.08-0.56-0.13c-0.19-0.05-0.39-0.1-0.57-0.15
		c0.39-0.59,0.8-1.13,1.23-1.62C446.2,136.95,446.62,136.53,447.05,136.15z M445.38,136.22c-0.72,0.69-1.4,1.5-2.03,2.41
		c-0.08-0.03-0.15-0.06-0.22-0.09c0,0-0.01,0-0.01-0.01c-0.07-0.03-0.13-0.06-0.19-0.09c0,0-0.01,0-0.01,0
		C443.71,137.57,444.54,136.82,445.38,136.22z M439.1,140.79c0.63-0.81,1.32-1.57,2.07-2.26c-0.74,0.86-1.44,1.83-2.06,2.9
		c-0.16,0.27-0.31,0.56-0.46,0.85c-0.14-0.1-0.26-0.21-0.35-0.31l-0.02-0.02l-0.02-0.02C438.53,141.54,438.81,141.16,439.1,140.79z
		 M436.74,144.84c-0.01-0.02-0.02-0.04-0.03-0.06c0.08-0.19,0.17-0.38,0.26-0.57c0.1-0.21,0.21-0.41,0.32-0.62
		c0.2-0.39,0.42-0.77,0.65-1.14c0.01,0.01,0.02,0.02,0.02,0.03c0.11,0.15,0.24,0.29,0.39,0.43c-0.42,0.89-0.78,1.83-1.09,2.81
		C437.08,145.43,436.91,145.14,436.74,144.84z M439.62,148.59c-0.13-0.05-0.24-0.11-0.36-0.16c-0.19-0.22-0.38-0.45-0.57-0.68
		c-0.12-0.15-0.25-0.3-0.36-0.45c0.15-0.62,0.32-1.23,0.52-1.82c0.1-0.3,0.21-0.6,0.33-0.9c0.11-0.27,0.22-0.55,0.33-0.81
		c0.12,0.07,0.25,0.14,0.37,0.21c0.23,0.12,0.46,0.25,0.71,0.37C440.15,145.69,439.82,147.11,439.62,148.59z M440.24,143.14
		c-0.13-0.05-0.25-0.11-0.37-0.16c0.39-0.8,0.83-1.55,1.3-2.26c0.19-0.29,0.39-0.58,0.59-0.85c0.16-0.22,0.32-0.43,0.49-0.64
		c0.07,0.05,0.14,0.09,0.21,0.13c0.06,0.04,0.13,0.08,0.19,0.12c0.04,0.02,0.08,0.04,0.11,0.06c-0.71,1.16-1.34,2.47-1.86,3.87
		C440.68,143.32,440.45,143.23,440.24,143.14z M443.08,151.75c-0.42-0.28-0.84-0.58-1.24-0.89c-0.19-0.15-0.38-0.3-0.56-0.45
		c0.19,0.07,0.38,0.14,0.58,0.2c0.4,0.13,0.81,0.25,1.23,0.36C443.09,151.23,443.08,151.49,443.08,151.75z M443.16,149.69
		c-0.41-0.09-0.8-0.19-1.18-0.3c-0.33-0.09-0.65-0.18-0.95-0.28c0.1-0.87,0.25-1.72,0.43-2.54c0.09-0.39,0.18-0.77,0.28-1.14
		c0.05-0.17,0.09-0.35,0.14-0.52c0.28,0.11,0.57,0.21,0.87,0.31c0.31,0.11,0.63,0.21,0.96,0.31
		C443.45,146.86,443.27,148.25,443.16,149.69z M443.07,144.09c-0.29-0.08-0.57-0.16-0.84-0.24c0.27-0.79,0.58-1.54,0.92-2.26
		c0.18-0.38,0.36-0.74,0.55-1.1c0.08-0.15,0.16-0.3,0.24-0.44c0.2,0.08,0.4,0.15,0.61,0.22c0.21,0.07,0.42,0.14,0.64,0.2
		c-0.48,1.18-0.89,2.47-1.22,3.84C443.66,144.25,443.36,144.17,443.07,144.09z M445.92,153.32c-0.19-0.09-0.38-0.18-0.57-0.27
		c-0.27-0.13-0.53-0.27-0.79-0.41c0-0.11-0.01-0.23-0.01-0.34c0-0.26,0-0.51,0.01-0.76c0-0.07,0-0.14,0-0.21
		c0.45,0.1,0.92,0.19,1.39,0.27c0.43,0.07,0.86,0.14,1.3,0.2c0,0.17,0,0.33,0,0.5c0,0.54,0.01,1.07,0.03,1.59
		C446.82,153.71,446.36,153.52,445.92,153.32z M447.29,150.38c-0.43-0.05-0.85-0.11-1.26-0.17c-0.48-0.07-0.95-0.15-1.4-0.23
		c0.05-0.85,0.13-1.69,0.24-2.5c0.06-0.45,0.12-0.89,0.2-1.33c0.01-0.08,0.03-0.17,0.04-0.25c0.42,0.1,0.86,0.2,1.31,0.29
		c0.38,0.08,0.76,0.15,1.15,0.21C447.42,147.68,447.33,149.02,447.29,150.38z M447.71,145.02c-0.38-0.05-0.75-0.11-1.11-0.17
		c-0.43-0.07-0.85-0.15-1.26-0.23c0.17-0.8,0.38-1.57,0.6-2.32c0.14-0.45,0.28-0.89,0.43-1.31c0.02-0.06,0.04-0.13,0.07-0.19
		c0.32,0.07,0.65,0.14,0.99,0.2c0.31,0.06,0.63,0.11,0.96,0.15C448.12,142.35,447.89,143.65,447.71,145.02z M449.34,154.57
		c-0.19-0.05-0.38-0.11-0.57-0.17c-0.01-0.32-0.01-0.65-0.02-0.97c-0.01-0.38-0.02-0.75-0.02-1.14c0-0.1,0-0.21,0-0.31
		c0.63,0.07,1.27,0.12,1.92,0.16c0,0.05,0,0.1,0,0.15c0,0.89,0.02,1.76,0.06,2.62C450.25,154.81,449.79,154.7,449.34,154.57z
		 M450.68,150.68c-0.43-0.03-0.86-0.06-1.28-0.09c-0.21-0.02-0.43-0.03-0.64-0.05c0.02-0.84,0.06-1.65,0.11-2.46
		c0.03-0.49,0.06-0.98,0.1-1.46c0-0.01,0-0.01,0-0.01c0.13,0.02,0.27,0.03,0.41,0.05c0.5,0.06,1,0.11,1.51,0.15
		C450.78,148.05,450.71,149.34,450.68,150.68z M451.01,145.35c-0.4-0.02-0.79-0.06-1.18-0.1c-0.24-0.02-0.49-0.04-0.73-0.06
		c0.09-0.85,0.2-1.67,0.32-2.46c0.07-0.48,0.15-0.96,0.23-1.42c0.6,0.06,1.22,0.11,1.85,0.14
		C451.31,142.65,451.14,143.96,451.01,145.35z M451.71,139.99c-0.36-0.01-0.71-0.03-1.05-0.05c-0.24-0.01-0.49-0.03-0.73-0.05
		c0.17-0.75,0.35-1.46,0.55-2.11c0.05-0.16,0.1-0.32,0.15-0.48c0.16-0.5,0.34-0.96,0.52-1.38c0.47,0.04,0.94,0.07,1.42,0.08
		c-0.1,0.41-0.21,0.87-0.32,1.36c-0.18,0.79-0.35,1.67-0.52,2.63C451.73,139.99,451.72,139.99,451.71,139.99z M455.13,152.29
		c0,1.11-0.03,2.19-0.07,3.25c-0.43-0.03-0.86-0.07-1.29-0.11c-0.53-0.06-1.06-0.13-1.58-0.22c-0.02-0.54-0.03-1.08-0.04-1.63
		c-0.01-0.43-0.02-0.85-0.02-1.28c0-0.03,0-0.05,0-0.08c0.5,0.02,1,0.03,1.51,0.03c0.5,0.01,0.99,0,1.48-0.01
		C455.13,152.26,455.13,152.27,455.13,152.29z M455.53,139.99c-0.09-0.53-0.19-1.03-0.28-1.5c-0.19-0.94-0.38-1.77-0.56-2.49
		c0.48-0.02,0.95-0.04,1.42-0.08c0.15,0.34,0.29,0.71,0.42,1.1c0.08,0.24,0.17,0.5,0.25,0.76c0.2,0.65,0.38,1.36,0.55,2.11
		c-0.16,0.01-0.33,0.02-0.5,0.03c-0.38,0.02-0.76,0.05-1.15,0.06C455.64,139.98,455.59,139.99,455.53,139.99z M455.95,142.66
		c-0.06-0.41-0.11-0.82-0.18-1.22c0.63-0.03,1.25-0.08,1.85-0.15c0.07,0.37,0.13,0.75,0.19,1.13c0.14,0.89,0.26,1.81,0.36,2.78
		c-0.04,0-0.08,0.01-0.12,0.01c-0.44,0.04-0.9,0.08-1.36,0.11c-0.15,0.01-0.29,0.03-0.44,0.03
		C456.17,144.42,456.07,143.52,455.95,142.66z M456.39,146.82c0.65-0.04,1.29-0.11,1.92-0.18c0.1,1.26,0.17,2.57,0.2,3.91
		c-0.45,0.04-0.92,0.07-1.38,0.11c-0.18,0.01-0.36,0.03-0.54,0.04c-0.02-0.92-0.07-1.8-0.12-2.67
		C456.45,147.62,456.42,147.22,456.39,146.82z M458.45,155.59c-0.43,0.02-0.85,0.03-1.28,0.03c-0.22,0-0.43,0-0.65-0.01
		c0.04-0.73,0.06-1.47,0.07-2.22c0.01-0.36,0.02-0.72,0.02-1.09c0-0.04,0-0.08,0-0.13c0.65-0.04,1.29-0.1,1.92-0.17
		c0,0.1,0,0.19,0,0.29C458.53,153.42,458.5,154.51,458.45,155.59z M457.78,137.43c-0.23-0.59-0.47-1.13-0.72-1.62
		c0.3-0.04,0.6-0.09,0.9-0.14c0.3,0.34,0.59,0.72,0.88,1.15c0.31,0.45,0.61,0.95,0.89,1.49c0.21,0.39,0.41,0.81,0.6,1.24
		c-0.2,0.03-0.41,0.06-0.61,0.09c-0.38,0.05-0.77,0.1-1.17,0.15C458.3,138.94,458.05,138.16,457.78,137.43z M459.1,142.2
		c-0.07-0.36-0.14-0.71-0.22-1.06c0.68-0.1,1.33-0.22,1.95-0.36c0.11,0.29,0.21,0.58,0.31,0.89c0.31,0.94,0.58,1.94,0.8,2.98
		c-0.07,0.01-0.15,0.03-0.23,0.04c-0.44,0.08-0.89,0.16-1.36,0.23c-0.26,0.04-0.52,0.08-0.79,0.12
		C459.43,144.06,459.28,143.11,459.1,142.2z M461.73,151.61c-0.14,1.2-0.24,2.22-0.4,3.75c-0.4,0.05-0.81,0.09-1.21,0.13
		c-0.06,0.01-0.13,0.01-0.19,0.01c0.05-0.85,0.07-1.71,0.08-2.58c0-0.21,0.01-0.41,0.01-0.62c0-0.17,0-0.32,0-0.49
		c0.18-0.03,0.35-0.06,0.52-0.09c0.03-0.23,0.05-0.47,0.08-0.73c0.32,0.19,0.65,0.37,0.97,0.54c0.05-0.01,0.1-0.02,0.15-0.03
		C461.74,151.53,461.73,151.57,461.73,151.61z M462.53,149.97c-0.19-0.11-0.38-0.21-0.57-0.32c-0.02,0.15-0.03,0.29-0.05,0.43
		c-0.22,0.04-0.44,0.08-0.67,0.12c-0.41,0.07-0.82,0.13-1.25,0.18c-0.03-0.99-0.09-1.94-0.17-2.88c-0.03-0.36-0.05-0.72-0.09-1.07
		c0.86-0.14,1.68-0.31,2.46-0.5c0.05,0.31,0.1,0.62,0.15,0.93c0.11,0.78,0.2,1.59,0.27,2.41c0.02,0.22,0.04,0.45,0.05,0.67
		C462.61,149.96,462.57,149.96,462.53,149.97z M463.3,144.36c-0.05-0.22-0.11-0.43-0.17-0.65c-0.3-1.15-0.65-2.24-1.06-3.24
		c0.44-0.13,0.85-0.27,1.25-0.42c0.1,0.17,0.19,0.35,0.28,0.52c0.55,1.02,1.04,2.12,1.45,3.31c-0.11,0.03-0.22,0.06-0.33,0.1
		c-0.42,0.13-0.87,0.25-1.33,0.36C463.36,144.34,463.33,144.35,463.3,144.36z M463.71,146.4c-0.05-0.28-0.1-0.56-0.15-0.84
		c0.65-0.19,1.26-0.4,1.83-0.62c0.06,0.22,0.12,0.44,0.18,0.66c0.29,1.09,0.51,2.24,0.66,3.42c-0.02,0.01-0.04,0.01-0.05,0.02
		c-0.45,0.14-0.92,0.28-1.41,0.41c-0.22,0.06-0.43,0.12-0.66,0.17C464.02,148.52,463.89,147.45,463.71,146.4z M464.26,150.89
		c0.73-0.21,1.43-0.44,2.08-0.69c0.04,0.56,0.06,1.12,0.07,1.69C465.69,151.59,464.97,151.25,464.26,150.89z M466.69,144.38
		c0.39-0.19,0.75-0.38,1.09-0.59c0.03,0.06,0.05,0.12,0.07,0.18c0.52,1.21,0.94,2.51,1.23,3.88c-0.05,0.03-0.11,0.05-0.16,0.08
		c-0.39,0.2-0.82,0.4-1.28,0.59C467.44,147.07,467.11,145.68,466.69,144.38z M469.51,153.11c-0.45-0.15-0.89-0.32-1.34-0.49
		c-0.09-0.04-0.19-0.07-0.28-0.11c0-0.07,0-0.14,0-0.22c0-0.71-0.03-1.4-0.08-2.09c-0.01-0.2-0.02-0.4-0.04-0.6
		c0.07-0.04,0.15-0.07,0.23-0.11c0.45-0.22,0.87-0.45,1.26-0.69c0.02,0.1,0.03,0.2,0.04,0.31c0.08,0.53,0.14,1.06,0.17,1.6
		c0.04,0.52,0.06,1.05,0.05,1.58C469.53,152.57,469.52,152.84,469.51,153.11z M468.93,142.91c0.04-0.04,0.08-0.08,0.11-0.12
		c0.11-0.12,0.22-0.25,0.31-0.38c0.71,1.15,1.32,2.43,1.79,3.8c-0.03,0.04-0.06,0.09-0.09,0.13c-0.03,0.04-0.07,0.08-0.1,0.12
		c-0.15,0.18-0.34,0.36-0.57,0.55C470.02,145.56,469.53,144.18,468.93,142.91z M471.2,147.16c0.06-0.08,0.11-0.15,0.17-0.23
		c0.36,1.2,0.6,2.46,0.71,3.76c0.02,0.21,0.04,0.41,0.05,0.62c-0.26,0.37-0.64,0.75-1.12,1.13c0-0.05,0-0.1,0-0.15
		c0-1.53-0.15-3.02-0.44-4.45C470.81,147.62,471.02,147.39,471.2,147.16z M472.08,153.9c-0.37-0.1-0.74-0.21-1.11-0.32
		c0-0.01,0-0.02,0-0.03c0.47-0.39,0.87-0.79,1.18-1.18C472.15,152.89,472.12,153.4,472.08,153.9z"/>
</g>
<g>
	<circle class="st2" cx="324.36" cy="83.49" r="3.61"/>
	<circle class="st2" cx="341.83" cy="83.49" r="3.61"/>
	<g>
		<path class="st2" d="M309,64.82c1.83,0,3.31-1.48,3.31-3.31c0-1.83-1.48-3.31-3.31-3.31c-1.83,0-3.31,1.48-3.31,3.31
			C305.69,63.33,307.17,64.82,309,64.82z"/>
		<path class="st2" d="M321.86,58.22c-0.77-0.12-1.5,0.41-1.62,1.19l-0.69,4.53l-4.22,1.49h-11.45c-1,0-1.81,0.81-1.81,1.81v13.25
			c0,1,0.81,1.81,1.81,1.81h0.6l0.6,9.31h0.08c0.41,2.24,2.37,3.94,4.74,3.94s4.32-1.7,4.74-3.94h0.08l1.02-22.07l5.06-1.78
			c0.2-0.03,0.38-0.09,0.55-0.19l0.08-0.03l-0.01-0.02c0.31-0.21,0.53-0.55,0.59-0.95l1.03-6.72
			C323.16,59.06,322.63,58.34,321.86,58.22z"/>
	</g>
	<path class="st2" d="M332.8,92.53h-16.87v0c0-2.66,2.16-4.82,4.82-4.82h7.24C330.64,87.71,332.8,89.86,332.8,92.53L332.8,92.53z"/>
	<path class="st2" d="M350.87,92.53H334v0c0-2.66,2.16-4.82,4.82-4.82h7.24C348.71,87.71,350.87,89.86,350.87,92.53L350.87,92.53z"
		/>
	<path class="st2" d="M347.86,73.85V55.18c0-6.48-5.29-7.22-5.35-7.22l-26.58,0c-2.98,0-5.17,0.76-6.51,2.25
		c-1.54,1.72-1.33,3.75-1.32,3.84l1.2-0.13c0-0.02-0.16-1.59,1.02-2.9c1.1-1.23,2.99-1.85,5.61-1.85h26.46
		c0.43,0.06,4.26,0.79,4.26,6.02v18.67h-3.01v-1.2c0-1-0.81-1.81-1.81-1.81h-6.61c-1,0-1.81,0.81-1.81,1.81v1.2h-16.26v4.22h32.53
		v-4.22H347.86z"/>
	<g>
		<rect x="315.93" y="53.67" class="st3" width="25.3" height="0.6"/>
	</g>
	<g>
		<rect x="326.77" y="56.99" class="st3" width="14.16" height="0.6"/>
	</g>
	<g>
		<rect x="326.77" y="60" class="st3" width="14.16" height="0.6"/>
	</g>
</g>
<g>
	<path class="st2" d="M597.37,116.17l5.22-5.22h-4.66c0,0,0,0,0,0c0-13.28-10.54-24.13-23.69-24.66l-4.59-4.59v4.83
		c-11.91,1.75-21.09,12.03-21.09,24.42c0,0.16,0.01,0.32,0.01,0.48l-5.38,5.38h6.08c2.49,10.19,11.33,17.91,22.07,18.74l5.45,5.45
		v-5.63C587.01,133.9,595.21,126.15,597.37,116.17z M576.79,131.8v-5.07l-5.29,5.29c-8.85-0.73-16.18-6.93-18.57-15.21h4.54
		l-5.36-5.36c0-0.17-0.01-0.34-0.01-0.51c0-10.44,7.6-19.13,17.56-20.84v5.86l6.03-6.03c10.52,1.21,18.72,10.17,18.72,21.01
		c0,0,0,0,0,0h-6.08l5.38,5.38C591.61,124.28,585,130.41,576.79,131.8z"/>
	<path class="st2" d="M581.97,105.65c-0.97,0-1.88,0.36-2.62,0.97c-0.3-3.25-2.64-5.78-5.49-5.78c-2.52,0-4.64,1.97-5.31,4.68
		c-0.45-0.26-0.95-0.4-1.48-0.4c-1.88,0-3.4,1.78-3.4,3.98c0,0.02,0,0.05,0,0.07c-0.2-0.05-0.4-0.07-0.61-0.07
		c-1.71,0-3.09,1.62-3.09,3.62c0,2,1.38,3.62,3.09,3.62h2.18h6.71v-5.71h-1.52l3.98-6.11l3.98,6.11h-1.52v5.71h5.09
		c2.52,0,4.56-2.39,4.56-5.35C586.53,108.04,584.48,105.65,581.97,105.65z"/>
</g>
<g>
	<polygon class="st2" points="671.22,86.34 648.04,93.58 651.97,95.52 617.03,115.96 618.85,119.07 654.01,98.5 653.55,103 	"/>
	<path class="st2" d="M631.46,121.7h-12.85c-0.69,0-1.25,0.56-1.25,1.25v3.64c0,0.69,0.56,1.25,1.25,1.25h12.85
		c0.69,0,1.25-0.56,1.25-1.25v-3.64C632.71,122.26,632.15,121.7,631.46,121.7z"/>
	<path class="st2" d="M631.46,129.84h-12.85c-0.69,0-1.25,0.56-1.25,1.25v3.64c0,0.69,0.56,1.25,1.25,1.25h12.85
		c0.69,0,1.25-0.56,1.25-1.25v-3.64C632.71,130.4,632.15,129.84,631.46,129.84z"/>
	<path class="st2" d="M649.5,121.7h-12.85c-0.69,0-1.25,0.56-1.25,1.25v3.64c0,0.69,0.56,1.25,1.25,1.25h12.85
		c0.69,0,1.25-0.56,1.25-1.25v-3.64C650.74,122.26,650.18,121.7,649.5,121.7z"/>
	<path class="st2" d="M649.5,129.84h-12.85c-0.69,0-1.25,0.56-1.25,1.25v3.64c0,0.69,0.56,1.25,1.25,1.25h12.85
		c0.69,0,1.25-0.56,1.25-1.25v-3.64C650.74,130.4,650.18,129.84,649.5,129.84z"/>
	<path class="st2" d="M649.5,113.56h-12.85c-0.69,0-1.25,0.56-1.25,1.25v3.64c0,0.69,0.56,1.25,1.25,1.25h12.85
		c0.69,0,1.25-0.56,1.25-1.25v-3.64C650.74,114.13,650.18,113.56,649.5,113.56z"/>
	<path class="st2" d="M669.44,121.7H656.6c-0.69,0-1.25,0.56-1.25,1.25v3.64c0,0.69,0.56,1.25,1.25,1.25h12.85
		c0.69,0,1.25-0.56,1.25-1.25v-3.64C670.69,122.26,670.13,121.7,669.44,121.7z"/>
	<path class="st2" d="M669.44,129.84H656.6c-0.69,0-1.25,0.56-1.25,1.25v3.64c0,0.69,0.56,1.25,1.25,1.25h12.85
		c0.69,0,1.25-0.56,1.25-1.25v-3.64C670.69,130.4,670.13,129.84,669.44,129.84z"/>
	<path class="st2" d="M669.44,113.56H656.6c-0.69,0-1.25,0.56-1.25,1.25v3.64c0,0.69,0.56,1.25,1.25,1.25h12.85
		c0.69,0,1.25-0.56,1.25-1.25v-3.64C670.69,114.13,670.13,113.56,669.44,113.56z"/>
	<path class="st2" d="M669.44,105.43H656.6c-0.69,0-1.25,0.56-1.25,1.25v3.64c0,0.69,0.56,1.25,1.25,1.25h12.85
		c0.69,0,1.25-0.56,1.25-1.25v-3.64C670.69,105.99,670.13,105.43,669.44,105.43z"/>
</g>
<g>
	<path class="st2" d="M739.46,111.11c0-13.31-10.83-24.15-24.15-24.15c-13.31,0-24.15,10.83-24.15,24.15
		c0,13.31,10.83,24.15,24.15,24.15C728.62,135.26,739.46,124.43,739.46,111.11z M728.84,124.96c1.81-1.76,3.27-3.88,4.27-6.2
		c1-2.32,1.54-4.83,1.58-7.36c0.04-2.53-0.41-5.06-1.34-7.41c-0.92-2.35-2.32-4.51-4.07-6.33c-2.05-2.15-4.08-3.52-3.92-3.81
		c0.08-0.13,0.7,0.04,1.6,0.54c0.9,0.5,2.06,1.34,3.15,2.47c1.85,1.93,3.33,4.22,4.31,6.71c0.98,2.49,1.46,5.17,1.42,7.85
		c-0.04,2.67-0.61,5.34-1.67,7.8c-1.06,2.46-2.61,4.7-4.52,6.57c-1.13,1.1-2.32,1.9-3.23,2.37c-0.92,0.47-1.54,0.62-1.61,0.49
		C724.65,128.36,726.73,127.05,728.84,124.96z M707.07,129.27c-0.06,0.14-0.73,0.02-1.72-0.42c-0.99-0.43-2.3-1.2-3.54-2.3
		c-2.12-1.86-3.86-4.15-5.07-6.7c-1.21-2.55-1.88-5.36-1.95-8.18c-0.08-2.82,0.42-5.66,1.48-8.27c1.06-2.62,2.66-5.01,4.68-6.98
		c1.18-1.16,2.44-2.01,3.41-2.5c0.97-0.49,1.63-0.65,1.7-0.52c0.15,0.3-2.07,1.63-4.3,3.83c-1.9,1.86-3.42,4.12-4.42,6.59
		c-1,2.47-1.47,5.15-1.4,7.81c0.07,2.66,0.7,5.31,1.84,7.72c1.14,2.41,2.78,4.58,4.79,6.33
		C704.91,127.77,707.21,128.97,707.07,129.27z M707.37,103.09v-1.97h1.29c1.69,0,3.2-0.31,4.53-0.94c1.34-0.62,2.29-1.3,2.87-2.01
		H718c-0.05,1.01-0.09,2.2-0.14,3.56c-0.05,1.36-0.07,2.58-0.07,3.65v13.89c0,0.55,0.12,1.04,0.36,1.46
		c0.24,0.43,0.59,0.75,1.04,0.95c0.41,0.17,1.07,0.33,1.99,0.47c0.92,0.14,1.61,0.22,2.06,0.23v1.66h-15.79v-1.66
		c0.47-0.03,1.2-0.1,2.19-0.2c0.99-0.1,1.68-0.21,2.05-0.32c0.48-0.16,0.85-0.41,1.11-0.76c0.26-0.35,0.39-0.88,0.39-1.58v-16.44
		H707.37z"/>
</g>
<g>
	<path class="st2" d="M858.98,77.5c0-11.57-9.42-20.99-20.99-20.99c-11.57,0-20.99,9.42-20.99,20.99c0,11.57,9.42,20.99,20.99,20.99
		C849.56,98.49,858.98,89.07,858.98,77.5z M849.75,89.54c1.57-1.53,2.84-3.37,3.71-5.39c0.87-2.01,1.34-4.2,1.37-6.4
		c0.04-2.2-0.36-4.4-1.16-6.44c-0.8-2.04-2.01-3.92-3.54-5.51c-1.78-1.87-3.55-3.06-3.4-3.31c0.07-0.12,0.61,0.04,1.39,0.47
		c0.78,0.43,1.79,1.16,2.74,2.15c1.61,1.68,2.89,3.67,3.75,5.83c0.85,2.16,1.27,4.5,1.23,6.82c-0.04,2.32-0.53,4.64-1.45,6.78
		c-0.92,2.14-2.27,4.09-3.93,5.71c-0.98,0.96-2.01,1.66-2.81,2.06c-0.8,0.41-1.34,0.54-1.4,0.43
		C846.11,92.49,847.92,91.35,849.75,89.54z M830.83,93.29c-0.05,0.12-0.63,0.02-1.5-0.36c-0.86-0.38-2-1.05-3.08-2
		c-1.85-1.61-3.36-3.61-4.41-5.83c-1.05-2.22-1.63-4.66-1.69-7.11c-0.07-2.45,0.36-4.92,1.29-7.19c0.92-2.28,2.32-4.35,4.07-6.07
		c1.03-1.01,2.12-1.74,2.96-2.17c0.84-0.43,1.41-0.57,1.48-0.45c0.13,0.26-1.8,1.42-3.74,3.33c-1.65,1.62-2.97,3.58-3.84,5.73
		c-0.87,2.15-1.28,4.47-1.21,6.79c0.06,2.32,0.61,4.61,1.6,6.71c0.99,2.09,2.42,3.98,4.16,5.5
		C828.95,91.98,830.95,93.02,830.83,93.29z M831.09,70.52v-1.71h1.12c1.47,0,2.78-0.27,3.94-0.81c1.16-0.54,1.99-1.13,2.5-1.75h1.69
		c-0.04,0.88-0.08,1.91-0.12,3.1c-0.04,1.18-0.06,2.24-0.06,3.18v12.07c0,0.48,0.1,0.9,0.32,1.27c0.21,0.37,0.51,0.65,0.91,0.82
		c0.35,0.15,0.93,0.29,1.73,0.41c0.8,0.12,1.4,0.19,1.79,0.2v1.45h-13.72V87.3c0.41-0.03,1.04-0.08,1.9-0.17
		c0.86-0.09,1.46-0.18,1.78-0.27c0.42-0.14,0.74-0.36,0.97-0.66c0.22-0.31,0.34-0.76,0.34-1.37V70.52H831.09z"/>
</g>
<g>
	<path class="st2" d="M972.27,67.61h-39.98c-0.66,0-1.21,0.54-1.21,1.21v23.06c0,0.66,0.54,1.21,1.21,1.21h14.2
		c0.66,0,1.21-0.54,1.21-1.21v-10.6c0-0.66,0-1.51,0-1.88c0-0.37,0-0.87,0-1.11c0-0.24,0.54-0.44,1.21-0.44h6.74
		c0.66,0,1.21,0.2,1.21,0.44c0,0.24,0,0.74,0,1.11c0,0.37,0,1.22,0,1.88v10.6c0,0.66,0.54,1.21,1.21,1.21h14.2
		c0.66,0,1.21-0.54,1.21-1.21V68.82C973.48,68.15,972.93,67.61,972.27,67.61z M939.75,83.78c0,0.66-0.54,1.21-1.21,1.21h-1.73
		c-0.66,0-1.21-0.54-1.21-1.21v-2.5c0-0.66,0.54-1.21,1.21-1.21h1.73c0.66,0,1.21,0.54,1.21,1.21V83.78z M939.75,77.51
		c0,0.66-0.54,1.21-1.21,1.21h-1.73c-0.66,0-1.21-0.54-1.21-1.21V75.2c0-0.66,0.54-1.21,1.21-1.21h1.73c0.66,0,1.21,0.54,1.21,1.21
		V77.51z M945.24,83.78c0,0.66-0.54,1.21-1.21,1.21h-1.73c-0.66,0-1.21-0.54-1.21-1.21v-2.5c0-0.66,0.54-1.21,1.21-1.21h1.73
		c0.66,0,1.21,0.54,1.21,1.21V83.78z M945.24,77.51c0,0.66-0.54,1.21-1.21,1.21h-1.73c-0.66,0-1.21-0.54-1.21-1.21V75.2
		c0-0.66,0.54-1.21,1.21-1.21h1.73c0.66,0,1.21,0.54,1.21,1.21V77.51z M963.46,83.78c0,0.66-0.54,1.21-1.21,1.21h-1.73
		c-0.66,0-1.21-0.54-1.21-1.21v-2.5c0-0.66,0.54-1.21,1.21-1.21h1.73c0.66,0,1.21,0.54,1.21,1.21V83.78z M963.46,77.51
		c0,0.66-0.54,1.21-1.21,1.21h-1.73c-0.66,0-1.21-0.54-1.21-1.21V75.2c0-0.66,0.54-1.21,1.21-1.21h1.73c0.66,0,1.21,0.54,1.21,1.21
		V77.51z M968.96,83.78c0,0.66-0.54,1.21-1.21,1.21h-1.73c-0.66,0-1.21-0.54-1.21-1.21v-2.5c0-0.66,0.54-1.21,1.21-1.21h1.73
		c0.66,0,1.21,0.54,1.21,1.21V83.78z M968.96,77.51c0,0.66-0.54,1.21-1.21,1.21h-1.73c-0.66,0-1.21-0.54-1.21-1.21V75.2
		c0-0.66,0.54-1.21,1.21-1.21h1.73c0.66,0,1.21,0.54,1.21,1.21V77.51z"/>
	<path class="st2" d="M932.29,65.38h39.98c0.66,0,0.78-0.33,0.25-0.74l-19.29-14.9c-0.26-0.2-0.61-0.31-0.96-0.31
		c-0.35,0-0.69,0.1-0.96,0.31l-8.08,6.24c-0.18,0.14-0.35,0.21-0.5,0.21c-0.28,0-0.46-0.24-0.46-0.68v-4.82
		c0-0.66-0.54-1.21-1.21-1.21h-3.52c-0.66,0-1.21,0.54-1.21,1.21v9.41c0,0.66-0.43,1.54-0.95,1.95l-3.35,2.59
		C931.51,65.05,931.62,65.38,932.29,65.38z"/>
</g>
<g>
	<path class="st2" d="M941.14,148.38c-4.71,0-8.54,3.82-8.54,8.53c0,4.72,3.82,8.54,8.54,8.54c4.72,0,8.53-3.82,8.53-8.54
		C949.67,152.2,945.85,148.38,941.14,148.38z M941.14,163.03c-3.38,0-6.12-2.74-6.12-6.12c0-3.38,2.74-6.12,6.12-6.12
		c3.38,0,6.12,2.74,6.12,6.12C947.25,160.29,944.51,163.03,941.14,163.03z"/>
	<path class="st2" d="M955.69,152.51l1.18-2.57l-1.68-2.92l-2.73-0.26c-0.29-0.33-0.59-0.64-0.91-0.93l-0.27-2.82l-2.92-1.68
		l-2.49,1.14c-0.41-0.13-0.84-0.26-1.27-0.35l-1.64-2.31h-3.37l-1.59,2.23c-0.43,0.09-0.86,0.2-1.27,0.32l-2.57-1.18l-2.92,1.68
		l-0.26,2.73c-0.32,0.29-0.64,0.59-0.93,0.91l-2.82,0.26l-1.69,2.92l1.14,2.49c-0.13,0.41-0.25,0.84-0.35,1.27l-2.3,1.64v3.37
		l2.23,1.59c0.09,0.43,0.2,0.86,0.33,1.27l-1.18,2.57l1.69,2.92l2.73,0.26c0.29,0.32,0.59,0.63,0.91,0.93l0.27,2.82l2.92,1.69
		l2.49-1.14c0.41,0.13,0.84,0.25,1.27,0.35l1.64,2.3h3.37l1.58-2.23c0.43-0.09,0.86-0.2,1.27-0.33l2.57,1.18l2.92-1.69l0.26-2.73
		c0.33-0.29,0.64-0.59,0.93-0.91l2.82-0.27l1.68-2.92l-1.14-2.49c0.13-0.42,0.25-0.84,0.35-1.27l2.31-1.64v-3.38l-2.24-1.58
		C955.93,153.35,955.82,152.92,955.69,152.51z M941.14,167.81c-6.02,0-10.9-4.88-10.9-10.9c0-6.02,4.88-10.9,10.9-10.9
		c6.02,0,10.9,4.88,10.9,10.9C952.03,162.93,947.16,167.81,941.14,167.81z"/>
	<path class="st2" d="M967.28,140.57c-3.22,0-5.83,2.61-5.83,5.83c0,3.22,2.61,5.83,5.83,5.83c3.23,0,5.84-2.61,5.84-5.83
		C973.12,143.18,970.51,140.57,967.28,140.57z M967.28,150.58c-2.31,0-4.18-1.87-4.18-4.18c0-2.31,1.87-4.18,4.18-4.18
		c2.31,0,4.18,1.87,4.18,4.18C971.46,148.71,969.59,150.58,967.28,150.58z"/>
	<path class="st2" d="M978.99,147.65v-2.3l-1.52-1.09c-0.06-0.29-0.14-0.58-0.22-0.87l0.8-1.76l-1.15-2l-1.87-0.18
		c-0.2-0.22-0.41-0.44-0.62-0.64l-0.18-1.93l-1.99-1.15l-1.7,0.78c-0.28-0.09-0.57-0.17-0.86-0.24l-1.12-1.58h-2.3l-1.09,1.53
		c-0.3,0.06-0.59,0.14-0.87,0.22l-1.76-0.81l-1.99,1.15l-0.18,1.87c-0.22,0.2-0.43,0.41-0.64,0.63l-1.93,0.18l-1.15,2l0.78,1.7
		c-0.09,0.28-0.17,0.57-0.24,0.86l-1.57,1.12v2.3l1.53,1.09c0.06,0.3,0.13,0.59,0.22,0.87l-0.81,1.76l1.15,1.99l1.87,0.18
		c0.2,0.22,0.41,0.44,0.62,0.64l0.18,1.93l2,1.15l1.7-0.78c0.28,0.09,0.57,0.17,0.87,0.24l1.12,1.57h2.31l1.09-1.53
		c0.29-0.06,0.58-0.13,0.87-0.22l1.76,0.81l1.99-1.15l0.18-1.87c0.22-0.2,0.44-0.41,0.64-0.63l1.93-0.18l1.15-1.99l-0.78-1.7
		c0.1-0.29,0.18-0.57,0.24-0.87L978.99,147.65z M967.28,153.85c-4.11,0-7.45-3.34-7.45-7.45c0-4.11,3.34-7.45,7.45-7.45
		c4.12,0,7.45,3.34,7.45,7.45C974.74,150.52,971.4,153.85,967.28,153.85z"/>
</g>
<g>
	<path class="st2" d="M828.87,143.58c2.18,5.19,6.34,8.01,9.12,8.01c2.73,0,6.55-2.73,8.76-7.85c0.54-1.24,1-2.83,1.33-4.39
		c0.36-1.24,0.56-2.82,0.56-4.83c0-5.32-4.77-9.81-10.65-9.81c-5.88,0-10.64,4.49-10.64,9.81c0,1.4,0.09,2.6,0.25,3.61
		C827.81,139.98,828.22,142.05,828.87,143.58z"/>
	<path class="st2" d="M856.81,158.74c-2.13-2.27-8.11-1.7-11.07-3.27c-1.31,2.46-1.33,6.5-3.52,6.5c-0.09,0-0.19-0.01-0.29-0.02
		c-3.29-0.49-1.64-8.88-3.95-8.88s-0.66,8.39-3.95,8.88c-0.1,0.02-0.2,0.02-0.29,0.02c-2.18,0-2.2-4.04-3.51-6.5
		c-2.96,1.56-8.94,0.99-11.06,3.27c-1.15,1.23-1.75,8.87-1.75,12.26h41.13C858.55,167.61,857.96,159.98,856.81,158.74z"/>
</g>
</svg>
