<?xml version="1.0" encoding="utf-8"?>
<!-- Generator: Adobe Illustrator 23.0.3, SVG Export Plug-In . SVG Version: 6.00 Build 0)  -->
<svg version="1.1" id="Layer_1" xmlns="http://www.w3.org/2000/svg" xmlns:xlink="http://www.w3.org/1999/xlink" x="0px" y="0px"
	 viewBox="0 0 151.667 120.132" enable-background="new 0 0 151.667 120.132" xml:space="preserve">
<g>
	<path d="M2.106,11.263h3.56v0.624H2.778v1.776h2.696v0.624H2.778v2.016H5.81v0.624H2.106V11.263z"/>
	<path d="M9.85,16.263H9.833c-0.117,0.214-0.303,0.394-0.556,0.54s-0.548,0.22-0.884,0.22c-0.261,0-0.507-0.049-0.736-0.147
		c-0.229-0.099-0.428-0.236-0.596-0.412s-0.3-0.384-0.396-0.624c-0.096-0.24-0.144-0.501-0.144-0.784
		c0-0.282,0.048-0.544,0.144-0.784s0.229-0.447,0.4-0.624c0.171-0.176,0.377-0.312,0.62-0.412c0.243-0.099,0.511-0.147,0.804-0.147
		c0.272,0,0.521,0.056,0.748,0.168c0.227,0.112,0.425,0.27,0.596,0.472H9.85V10.88h0.624v6.048H9.85V16.263z M9.85,15.055
		c0-0.197-0.031-0.38-0.092-0.548c-0.061-0.168-0.15-0.314-0.268-0.44c-0.118-0.125-0.258-0.224-0.42-0.296
		c-0.163-0.071-0.345-0.107-0.548-0.107S8.136,13.7,7.974,13.771c-0.163,0.072-0.303,0.171-0.42,0.296
		c-0.118,0.126-0.207,0.272-0.268,0.44c-0.062,0.168-0.092,0.351-0.092,0.548s0.031,0.38,0.092,0.548
		c0.061,0.168,0.15,0.315,0.268,0.44c0.117,0.125,0.257,0.224,0.42,0.296c0.163,0.072,0.345,0.107,0.548,0.107
		s0.385-0.035,0.548-0.107s0.303-0.171,0.42-0.296c0.117-0.125,0.207-0.272,0.268-0.44C9.819,15.435,9.85,15.253,9.85,15.055z"/>
	<path d="M14.89,16.04c0,0.171,0.005,0.33,0.016,0.479s0.016,0.285,0.016,0.408H14.33c0-0.102-0.002-0.202-0.008-0.304
		s-0.008-0.205-0.008-0.312h-0.016c-0.043,0.091-0.103,0.179-0.18,0.265c-0.077,0.085-0.169,0.161-0.276,0.228
		c-0.107,0.066-0.227,0.12-0.36,0.16c-0.134,0.04-0.278,0.06-0.432,0.06c-0.246,0-0.458-0.037-0.636-0.111
		c-0.179-0.075-0.327-0.179-0.444-0.312c-0.117-0.133-0.204-0.295-0.26-0.483c-0.056-0.189-0.084-0.396-0.084-0.62v-2.312h0.624
		v2.248c0,0.314,0.069,0.562,0.208,0.744c0.139,0.182,0.355,0.271,0.648,0.271c0.203,0,0.377-0.034,0.524-0.104
		c0.146-0.069,0.267-0.168,0.36-0.296c0.093-0.128,0.163-0.28,0.208-0.456s0.068-0.371,0.068-0.584v-1.824h0.624V16.04z"/>
	<path d="M18.737,14.12c-0.133-0.16-0.277-0.276-0.432-0.349c-0.155-0.071-0.326-0.107-0.512-0.107
		c-0.208,0-0.392,0.036-0.552,0.107c-0.16,0.072-0.292,0.172-0.396,0.3c-0.104,0.129-0.183,0.276-0.236,0.444s-0.08,0.348-0.08,0.54
		s0.031,0.372,0.092,0.54c0.061,0.168,0.146,0.316,0.256,0.444c0.109,0.128,0.241,0.228,0.396,0.3s0.328,0.107,0.52,0.107
		c0.411,0,0.728-0.154,0.952-0.464l0.464,0.44c-0.182,0.208-0.395,0.36-0.64,0.456s-0.504,0.144-0.776,0.144
		c-0.288,0-0.552-0.048-0.792-0.144c-0.24-0.096-0.444-0.232-0.612-0.408s-0.299-0.384-0.392-0.624
		c-0.093-0.24-0.14-0.504-0.14-0.792c0-0.282,0.047-0.544,0.14-0.784c0.093-0.24,0.225-0.447,0.396-0.624
		c0.17-0.176,0.375-0.312,0.612-0.412c0.237-0.099,0.5-0.147,0.788-0.147c0.277,0,0.54,0.048,0.788,0.144
		c0.248,0.097,0.465,0.246,0.652,0.448L18.737,14.12z"/>
	<path d="M19.882,13.664c0.192-0.197,0.42-0.343,0.684-0.437c0.264-0.093,0.532-0.14,0.804-0.14c0.554,0,0.955,0.131,1.2,0.392
		c0.245,0.262,0.368,0.659,0.368,1.192v1.607c0,0.107,0.005,0.218,0.016,0.332c0.01,0.115,0.024,0.221,0.04,0.316h-0.6
		c-0.021-0.085-0.034-0.18-0.036-0.284c-0.003-0.104-0.004-0.196-0.004-0.275h-0.016c-0.123,0.191-0.287,0.349-0.492,0.472
		c-0.205,0.122-0.452,0.184-0.74,0.184c-0.192,0-0.372-0.023-0.54-0.071c-0.168-0.049-0.315-0.119-0.44-0.213
		c-0.125-0.093-0.226-0.209-0.3-0.348s-0.112-0.299-0.112-0.479c0-0.31,0.08-0.553,0.24-0.729c0.16-0.176,0.358-0.307,0.596-0.392
		c0.237-0.086,0.493-0.139,0.768-0.16c0.274-0.021,0.527-0.032,0.756-0.032h0.24v-0.112c0-0.271-0.082-0.477-0.244-0.615
		s-0.391-0.208-0.684-0.208c-0.203,0-0.401,0.033-0.596,0.1c-0.195,0.066-0.367,0.17-0.516,0.308L19.882,13.664z M21.69,15.128
		c-0.4,0-0.717,0.056-0.952,0.168s-0.352,0.296-0.352,0.552c0,0.234,0.079,0.401,0.236,0.5c0.157,0.099,0.353,0.148,0.588,0.148
		c0.181,0,0.34-0.031,0.476-0.093c0.136-0.061,0.249-0.143,0.34-0.243c0.091-0.102,0.16-0.221,0.208-0.356s0.075-0.281,0.08-0.436
		v-0.24H21.69z"/>
	<path d="M26.13,13.712h-1.104v1.872c0,0.122,0.002,0.235,0.008,0.34c0.005,0.104,0.027,0.194,0.064,0.271
		c0.037,0.078,0.093,0.14,0.168,0.185s0.181,0.067,0.32,0.067c0.09,0,0.184-0.01,0.28-0.031s0.187-0.054,0.272-0.097l0.024,0.568
		c-0.106,0.048-0.225,0.083-0.356,0.104c-0.131,0.021-0.255,0.031-0.372,0.031c-0.224,0-0.403-0.029-0.536-0.088
		c-0.134-0.059-0.238-0.141-0.312-0.248c-0.075-0.106-0.124-0.238-0.148-0.396c-0.024-0.157-0.036-0.332-0.036-0.524v-2.056h-0.816
		v-0.528h0.816V12.12h0.624v1.063h1.104V13.712z"/>
	<path d="M26.817,11.719c0-0.123,0.044-0.229,0.132-0.32c0.088-0.09,0.196-0.136,0.324-0.136s0.236,0.046,0.324,0.136
		c0.088,0.091,0.132,0.197,0.132,0.32c0,0.134-0.043,0.243-0.128,0.328c-0.085,0.085-0.195,0.128-0.328,0.128
		s-0.243-0.043-0.328-0.128S26.817,11.853,26.817,11.719z M26.961,13.183h0.624v3.744h-0.624V13.183z"/>
	<path d="M28.609,15.055c0-0.293,0.051-0.56,0.152-0.8c0.102-0.24,0.24-0.446,0.416-0.62c0.176-0.173,0.387-0.308,0.632-0.404
		c0.245-0.096,0.512-0.144,0.8-0.144s0.555,0.048,0.8,0.144c0.246,0.097,0.456,0.231,0.632,0.404c0.176,0.174,0.314,0.38,0.416,0.62
		c0.101,0.24,0.152,0.507,0.152,0.8s-0.051,0.561-0.152,0.8c-0.102,0.24-0.24,0.447-0.416,0.62
		c-0.176,0.174-0.387,0.309-0.632,0.404c-0.245,0.096-0.512,0.144-0.8,0.144s-0.555-0.048-0.8-0.144
		c-0.246-0.096-0.456-0.23-0.632-0.404c-0.176-0.173-0.314-0.38-0.416-0.62C28.66,15.616,28.609,15.348,28.609,15.055z
		 M29.281,15.055c0,0.197,0.031,0.38,0.092,0.548c0.061,0.168,0.15,0.315,0.268,0.44c0.117,0.125,0.257,0.224,0.42,0.296
		c0.163,0.072,0.345,0.107,0.548,0.107s0.385-0.035,0.548-0.107s0.303-0.171,0.42-0.296c0.117-0.125,0.207-0.272,0.268-0.44
		c0.062-0.168,0.092-0.351,0.092-0.548s-0.031-0.38-0.092-0.548c-0.061-0.168-0.15-0.314-0.268-0.44
		c-0.118-0.125-0.258-0.224-0.42-0.296c-0.163-0.071-0.345-0.107-0.548-0.107s-0.385,0.036-0.548,0.107
		c-0.163,0.072-0.303,0.171-0.42,0.296c-0.118,0.126-0.207,0.272-0.268,0.44C29.312,14.676,29.281,14.858,29.281,15.055z"/>
	<path d="M33.577,14.071c0-0.17-0.005-0.33-0.016-0.479c-0.011-0.149-0.016-0.285-0.016-0.408h0.592
		c0,0.102,0.003,0.203,0.008,0.304c0.005,0.102,0.008,0.206,0.008,0.312h0.016c0.042-0.091,0.103-0.179,0.18-0.264
		c0.078-0.086,0.169-0.162,0.276-0.229c0.106-0.066,0.227-0.12,0.36-0.16s0.277-0.06,0.432-0.06c0.245,0,0.457,0.037,0.636,0.112
		c0.179,0.074,0.327,0.179,0.444,0.312c0.117,0.134,0.204,0.295,0.26,0.484s0.084,0.396,0.084,0.62v2.312h-0.624v-2.248
		c0-0.314-0.069-0.562-0.208-0.744c-0.139-0.181-0.354-0.271-0.648-0.271c-0.203,0-0.377,0.034-0.524,0.104
		c-0.147,0.069-0.267,0.168-0.36,0.296c-0.094,0.128-0.163,0.28-0.208,0.456c-0.045,0.176-0.068,0.371-0.068,0.584v1.824h-0.624
		V14.071z"/>
</g>
<g>
	<path d="M43.172,113.009c0-0.32,0.026-0.653,0.08-1s0.152-0.662,0.296-0.948c0.144-0.285,0.34-0.52,0.588-0.704
		c0.248-0.184,0.566-0.275,0.956-0.275c0.389,0,0.708,0.092,0.956,0.275c0.248,0.185,0.444,0.419,0.588,0.704
		c0.144,0.286,0.243,0.602,0.296,0.948s0.08,0.68,0.08,1s-0.027,0.653-0.08,1s-0.152,0.663-0.296,0.948s-0.34,0.52-0.588,0.704
		c-0.248,0.184-0.567,0.275-0.956,0.275c-0.39,0-0.708-0.092-0.956-0.275c-0.248-0.185-0.444-0.419-0.588-0.704
		s-0.243-0.602-0.296-0.948S43.172,113.329,43.172,113.009z M43.844,113.009c0,0.139,0.005,0.293,0.016,0.464
		c0.01,0.171,0.03,0.343,0.06,0.517c0.029,0.173,0.072,0.343,0.128,0.508c0.056,0.165,0.13,0.312,0.224,0.439
		s0.207,0.231,0.34,0.309s0.293,0.115,0.48,0.115c0.187,0,0.347-0.038,0.48-0.115s0.247-0.181,0.34-0.309s0.168-0.274,0.224-0.439
		s0.099-0.335,0.128-0.508c0.029-0.174,0.049-0.346,0.06-0.517s0.016-0.325,0.016-0.464s-0.005-0.293-0.016-0.464
		s-0.031-0.343-0.06-0.516c-0.029-0.174-0.072-0.343-0.128-0.509c-0.056-0.165-0.131-0.312-0.224-0.439s-0.207-0.23-0.34-0.309
		c-0.133-0.077-0.293-0.115-0.48-0.115c-0.187,0-0.347,0.038-0.48,0.115c-0.133,0.078-0.247,0.181-0.34,0.309
		s-0.168,0.274-0.224,0.439c-0.056,0.166-0.099,0.335-0.128,0.509c-0.029,0.173-0.049,0.345-0.06,0.516
		C43.85,112.716,43.844,112.87,43.844,113.009z"/>
</g>
<g>
	<path d="M81.621,109.409h-2.312l-0.024,1.528c0.106-0.054,0.225-0.09,0.356-0.108c0.13-0.019,0.254-0.028,0.372-0.028
		c0.272,0,0.519,0.047,0.74,0.141c0.221,0.093,0.412,0.224,0.572,0.392c0.16,0.168,0.283,0.365,0.368,0.592
		c0.085,0.228,0.128,0.474,0.128,0.74c0,0.283-0.05,0.54-0.148,0.772c-0.099,0.231-0.235,0.429-0.408,0.592s-0.379,0.289-0.616,0.38
		s-0.495,0.136-0.772,0.136c-0.432,0-0.78-0.093-1.044-0.279c-0.264-0.188-0.473-0.438-0.628-0.752l0.672-0.257
		c0.096,0.214,0.236,0.386,0.42,0.517c0.184,0.131,0.396,0.195,0.636,0.195c0.17,0,0.329-0.03,0.476-0.092
		c0.146-0.061,0.274-0.149,0.384-0.264s0.196-0.252,0.26-0.412s0.096-0.339,0.096-0.536c0-0.208-0.036-0.392-0.108-0.552
		c-0.072-0.16-0.171-0.295-0.296-0.404c-0.125-0.109-0.273-0.191-0.444-0.248c-0.171-0.056-0.355-0.084-0.552-0.084
		c-0.192,0-0.389,0.033-0.592,0.101c-0.203,0.066-0.39,0.15-0.56,0.252l0.056-2.944h2.968V109.409z"/>
	<path d="M83.389,113.537c0.133,0,0.247,0.047,0.34,0.14c0.093,0.094,0.14,0.207,0.14,0.341c0,0.133-0.049,0.246-0.148,0.34
		c-0.099,0.093-0.209,0.14-0.332,0.14c-0.123,0-0.233-0.047-0.332-0.14c-0.099-0.094-0.148-0.207-0.148-0.34
		c0-0.134,0.047-0.247,0.14-0.341C83.142,113.584,83.255,113.537,83.389,113.537z"/>
	<path d="M84.805,111.617c0-0.32,0.026-0.653,0.08-1s0.152-0.662,0.296-0.948c0.144-0.285,0.34-0.52,0.588-0.704
		c0.248-0.184,0.566-0.275,0.956-0.275c0.389,0,0.708,0.092,0.956,0.275c0.248,0.185,0.444,0.419,0.588,0.704
		c0.144,0.286,0.243,0.602,0.296,0.948s0.08,0.68,0.08,1s-0.027,0.653-0.08,1s-0.152,0.663-0.296,0.948s-0.34,0.52-0.588,0.704
		c-0.248,0.184-0.567,0.275-0.956,0.275c-0.39,0-0.708-0.092-0.956-0.275c-0.248-0.185-0.444-0.419-0.588-0.704
		s-0.243-0.602-0.296-0.948S84.805,111.937,84.805,111.617z M85.477,111.617c0,0.139,0.005,0.293,0.016,0.464
		c0.01,0.171,0.03,0.343,0.06,0.517c0.029,0.173,0.072,0.343,0.128,0.508c0.056,0.165,0.13,0.312,0.224,0.439
		s0.207,0.231,0.34,0.309s0.293,0.115,0.48,0.115c0.187,0,0.347-0.038,0.48-0.115s0.247-0.181,0.34-0.309s0.168-0.274,0.224-0.439
		s0.099-0.335,0.128-0.508c0.029-0.174,0.049-0.346,0.06-0.517s0.016-0.325,0.016-0.464s-0.005-0.293-0.016-0.464
		s-0.031-0.343-0.06-0.516c-0.029-0.174-0.072-0.343-0.128-0.509c-0.056-0.165-0.131-0.312-0.224-0.439s-0.207-0.23-0.34-0.309
		c-0.133-0.077-0.293-0.115-0.48-0.115c-0.187,0-0.347,0.038-0.48,0.115c-0.133,0.078-0.247,0.181-0.34,0.309
		s-0.168,0.274-0.224,0.439c-0.056,0.166-0.099,0.335-0.128,0.509c-0.029,0.173-0.049,0.345-0.06,0.516
		C85.482,111.324,85.477,111.478,85.477,111.617z"/>
	<path d="M89.253,111.617c0-0.32,0.026-0.653,0.08-1s0.152-0.662,0.296-0.948c0.144-0.285,0.34-0.52,0.588-0.704
		c0.248-0.184,0.566-0.275,0.956-0.275c0.389,0,0.708,0.092,0.956,0.275c0.248,0.185,0.444,0.419,0.588,0.704
		c0.144,0.286,0.243,0.602,0.296,0.948s0.08,0.68,0.08,1s-0.027,0.653-0.08,1s-0.152,0.663-0.296,0.948s-0.34,0.52-0.588,0.704
		c-0.248,0.184-0.567,0.275-0.956,0.275c-0.39,0-0.708-0.092-0.956-0.275c-0.248-0.185-0.444-0.419-0.588-0.704
		s-0.243-0.602-0.296-0.948S89.253,111.937,89.253,111.617z M89.925,111.617c0,0.139,0.005,0.293,0.016,0.464
		c0.01,0.171,0.03,0.343,0.06,0.517c0.029,0.173,0.072,0.343,0.128,0.508c0.056,0.165,0.13,0.312,0.224,0.439
		s0.207,0.231,0.34,0.309s0.293,0.115,0.48,0.115c0.187,0,0.347-0.038,0.48-0.115s0.247-0.181,0.34-0.309s0.168-0.274,0.224-0.439
		s0.099-0.335,0.128-0.508c0.029-0.174,0.049-0.346,0.06-0.517s0.016-0.325,0.016-0.464s-0.005-0.293-0.016-0.464
		s-0.031-0.343-0.06-0.516c-0.029-0.174-0.072-0.343-0.128-0.509c-0.056-0.165-0.131-0.312-0.224-0.439s-0.207-0.23-0.34-0.309
		c-0.133-0.077-0.293-0.115-0.48-0.115c-0.187,0-0.347,0.038-0.48,0.115c-0.133,0.078-0.247,0.181-0.34,0.309
		s-0.168,0.274-0.224,0.439c-0.056,0.166-0.099,0.335-0.128,0.509c-0.029,0.173-0.049,0.345-0.06,0.516
		C89.931,111.324,89.925,111.478,89.925,111.617z"/>
	<path d="M93.701,111.617c0-0.32,0.026-0.653,0.08-1s0.152-0.662,0.296-0.948c0.144-0.285,0.34-0.52,0.588-0.704
		c0.248-0.184,0.566-0.275,0.956-0.275c0.389,0,0.708,0.092,0.956,0.275c0.248,0.185,0.444,0.419,0.588,0.704
		c0.144,0.286,0.243,0.602,0.296,0.948s0.08,0.68,0.08,1s-0.027,0.653-0.08,1s-0.152,0.663-0.296,0.948s-0.34,0.52-0.588,0.704
		c-0.248,0.184-0.567,0.275-0.956,0.275c-0.39,0-0.708-0.092-0.956-0.275c-0.248-0.185-0.444-0.419-0.588-0.704
		s-0.243-0.602-0.296-0.948S93.701,111.937,93.701,111.617z M94.373,111.617c0,0.139,0.005,0.293,0.016,0.464
		c0.01,0.171,0.03,0.343,0.06,0.517c0.029,0.173,0.072,0.343,0.128,0.508c0.056,0.165,0.13,0.312,0.224,0.439
		s0.207,0.231,0.34,0.309s0.293,0.115,0.48,0.115c0.187,0,0.347-0.038,0.48-0.115s0.247-0.181,0.34-0.309s0.168-0.274,0.224-0.439
		s0.099-0.335,0.128-0.508c0.029-0.174,0.049-0.346,0.06-0.517s0.016-0.325,0.016-0.464s-0.005-0.293-0.016-0.464
		s-0.031-0.343-0.06-0.516c-0.029-0.174-0.072-0.343-0.128-0.509c-0.056-0.165-0.131-0.312-0.224-0.439s-0.207-0.23-0.34-0.309
		c-0.133-0.077-0.293-0.115-0.48-0.115c-0.187,0-0.347,0.038-0.48,0.115c-0.133,0.078-0.247,0.181-0.34,0.309
		s-0.168,0.274-0.224,0.439c-0.056,0.166-0.099,0.335-0.128,0.509c-0.029,0.173-0.049,0.345-0.06,0.516
		C94.378,111.324,94.373,111.478,94.373,111.617z"/>
</g>
<g>
	<path d="M128.372,114.449H127.7v-4.8h-0.016l-1.016,0.855l-0.4-0.487l1.52-1.232h0.584V114.449z"/>
	<path d="M130.244,111.617c0-0.32,0.026-0.653,0.08-1s0.152-0.662,0.296-0.948c0.144-0.285,0.34-0.52,0.588-0.704
		c0.248-0.184,0.566-0.275,0.956-0.275c0.389,0,0.708,0.092,0.956,0.275c0.248,0.185,0.444,0.419,0.588,0.704
		c0.144,0.286,0.243,0.602,0.296,0.948s0.08,0.68,0.08,1s-0.027,0.653-0.08,1s-0.152,0.663-0.296,0.948s-0.34,0.52-0.588,0.704
		c-0.248,0.184-0.567,0.275-0.956,0.275c-0.39,0-0.708-0.092-0.956-0.275c-0.248-0.185-0.444-0.419-0.588-0.704
		s-0.243-0.602-0.296-0.948S130.244,111.937,130.244,111.617z M130.916,111.617c0,0.139,0.005,0.293,0.016,0.464
		c0.01,0.171,0.03,0.343,0.06,0.517c0.029,0.173,0.072,0.343,0.128,0.508c0.056,0.165,0.13,0.312,0.224,0.439
		s0.207,0.231,0.34,0.309s0.293,0.115,0.48,0.115c0.187,0,0.347-0.038,0.48-0.115s0.247-0.181,0.34-0.309s0.168-0.274,0.224-0.439
		s0.099-0.335,0.128-0.508c0.029-0.174,0.049-0.346,0.06-0.517s0.016-0.325,0.016-0.464s-0.005-0.293-0.016-0.464
		s-0.031-0.343-0.06-0.516c-0.029-0.174-0.072-0.343-0.128-0.509c-0.056-0.165-0.131-0.312-0.224-0.439s-0.207-0.23-0.34-0.309
		c-0.133-0.077-0.293-0.115-0.48-0.115c-0.187,0-0.347,0.038-0.48,0.115c-0.133,0.078-0.247,0.181-0.34,0.309
		s-0.168,0.274-0.224,0.439c-0.056,0.166-0.099,0.335-0.128,0.509c-0.029,0.173-0.049,0.345-0.06,0.516
		C130.921,111.324,130.916,111.478,130.916,111.617z"/>
	<path d="M135.5,113.537c0.133,0,0.247,0.047,0.34,0.14c0.093,0.094,0.14,0.207,0.14,0.341c0,0.133-0.049,0.246-0.148,0.34
		c-0.099,0.093-0.209,0.14-0.332,0.14c-0.123,0-0.233-0.047-0.332-0.14c-0.099-0.094-0.148-0.207-0.148-0.34
		c0-0.134,0.047-0.247,0.14-0.341C135.253,113.584,135.367,113.537,135.5,113.537z"/>
	<path d="M136.917,111.617c0-0.32,0.026-0.653,0.08-1s0.152-0.662,0.296-0.948c0.144-0.285,0.34-0.52,0.588-0.704
		c0.248-0.184,0.566-0.275,0.956-0.275c0.389,0,0.708,0.092,0.956,0.275c0.248,0.185,0.444,0.419,0.588,0.704
		c0.144,0.286,0.243,0.602,0.296,0.948s0.08,0.68,0.08,1s-0.027,0.653-0.08,1s-0.152,0.663-0.296,0.948s-0.34,0.52-0.588,0.704
		c-0.248,0.184-0.567,0.275-0.956,0.275c-0.39,0-0.708-0.092-0.956-0.275c-0.248-0.185-0.444-0.419-0.588-0.704
		s-0.243-0.602-0.296-0.948S136.917,111.937,136.917,111.617z M137.588,111.617c0,0.139,0.005,0.293,0.016,0.464
		c0.01,0.171,0.03,0.343,0.06,0.517c0.029,0.173,0.072,0.343,0.128,0.508c0.056,0.165,0.13,0.312,0.224,0.439
		s0.207,0.231,0.34,0.309s0.293,0.115,0.48,0.115c0.187,0,0.347-0.038,0.48-0.115s0.247-0.181,0.34-0.309s0.168-0.274,0.224-0.439
		s0.099-0.335,0.128-0.508c0.029-0.174,0.049-0.346,0.06-0.517s0.016-0.325,0.016-0.464s-0.005-0.293-0.016-0.464
		s-0.031-0.343-0.06-0.516c-0.029-0.174-0.072-0.343-0.128-0.509c-0.056-0.165-0.131-0.312-0.224-0.439s-0.207-0.23-0.34-0.309
		c-0.133-0.077-0.293-0.115-0.48-0.115c-0.187,0-0.347,0.038-0.48,0.115c-0.133,0.078-0.247,0.181-0.34,0.309
		s-0.168,0.274-0.224,0.439c-0.056,0.166-0.099,0.335-0.128,0.509c-0.029,0.173-0.049,0.345-0.06,0.516
		C137.594,111.324,137.588,111.478,137.588,111.617z"/>
	<path d="M141.364,111.617c0-0.32,0.026-0.653,0.08-1s0.152-0.662,0.296-0.948c0.144-0.285,0.34-0.52,0.588-0.704
		c0.248-0.184,0.566-0.275,0.956-0.275c0.389,0,0.708,0.092,0.956,0.275c0.248,0.185,0.444,0.419,0.588,0.704
		c0.144,0.286,0.243,0.602,0.296,0.948s0.08,0.68,0.08,1s-0.027,0.653-0.08,1s-0.152,0.663-0.296,0.948s-0.34,0.52-0.588,0.704
		c-0.248,0.184-0.567,0.275-0.956,0.275c-0.39,0-0.708-0.092-0.956-0.275c-0.248-0.185-0.444-0.419-0.588-0.704
		s-0.243-0.602-0.296-0.948S141.364,111.937,141.364,111.617z M142.036,111.617c0,0.139,0.005,0.293,0.016,0.464
		c0.01,0.171,0.03,0.343,0.06,0.517c0.029,0.173,0.072,0.343,0.128,0.508c0.056,0.165,0.13,0.312,0.224,0.439
		s0.207,0.231,0.34,0.309s0.293,0.115,0.48,0.115c0.187,0,0.347-0.038,0.48-0.115s0.247-0.181,0.34-0.309s0.168-0.274,0.224-0.439
		s0.099-0.335,0.128-0.508c0.029-0.174,0.049-0.346,0.06-0.517s0.016-0.325,0.016-0.464s-0.005-0.293-0.016-0.464
		s-0.031-0.343-0.06-0.516c-0.029-0.174-0.072-0.343-0.128-0.509c-0.056-0.165-0.131-0.312-0.224-0.439s-0.207-0.23-0.34-0.309
		c-0.133-0.077-0.293-0.115-0.48-0.115c-0.187,0-0.347,0.038-0.48,0.115c-0.133,0.078-0.247,0.181-0.34,0.309
		s-0.168,0.274-0.224,0.439c-0.056,0.166-0.099,0.335-0.128,0.509c-0.029,0.173-0.049,0.345-0.06,0.516
		C142.042,111.324,142.036,111.478,142.036,111.617z"/>
	<path d="M145.813,111.617c0-0.32,0.026-0.653,0.08-1s0.152-0.662,0.296-0.948c0.144-0.285,0.34-0.52,0.588-0.704
		c0.248-0.184,0.566-0.275,0.956-0.275c0.389,0,0.708,0.092,0.956,0.275c0.248,0.185,0.444,0.419,0.588,0.704
		c0.144,0.286,0.243,0.602,0.296,0.948s0.08,0.68,0.08,1s-0.027,0.653-0.08,1s-0.152,0.663-0.296,0.948s-0.34,0.52-0.588,0.704
		c-0.248,0.184-0.567,0.275-0.956,0.275c-0.39,0-0.708-0.092-0.956-0.275c-0.248-0.185-0.444-0.419-0.588-0.704
		s-0.243-0.602-0.296-0.948S145.813,111.937,145.813,111.617z M146.484,111.617c0,0.139,0.005,0.293,0.016,0.464
		c0.01,0.171,0.03,0.343,0.06,0.517c0.029,0.173,0.072,0.343,0.128,0.508c0.056,0.165,0.13,0.312,0.224,0.439
		s0.207,0.231,0.34,0.309s0.293,0.115,0.48,0.115c0.187,0,0.347-0.038,0.48-0.115s0.247-0.181,0.34-0.309s0.168-0.274,0.224-0.439
		s0.099-0.335,0.128-0.508c0.029-0.174,0.049-0.346,0.06-0.517s0.016-0.325,0.016-0.464s-0.005-0.293-0.016-0.464
		s-0.031-0.343-0.06-0.516c-0.029-0.174-0.072-0.343-0.128-0.509c-0.056-0.165-0.131-0.312-0.224-0.439s-0.207-0.23-0.34-0.309
		c-0.133-0.077-0.293-0.115-0.48-0.115c-0.187,0-0.347,0.038-0.48,0.115c-0.133,0.078-0.247,0.181-0.34,0.309
		s-0.168,0.274-0.224,0.439c-0.056,0.166-0.099,0.335-0.128,0.509c-0.029,0.173-0.049,0.345-0.06,0.516
		C146.49,111.324,146.484,111.478,146.484,111.617z"/>
</g>
<g>
	<path d="M5.914,28.05h0.848l3.28,4.704h0.016V28.05h0.672v5.664H9.882l-3.28-4.704H6.586v4.704H5.914V28.05z"/>
	<path d="M15.29,32.827c0,0.171,0.005,0.33,0.016,0.479s0.016,0.285,0.016,0.408H14.73c0-0.102-0.002-0.202-0.008-0.304
		s-0.008-0.205-0.008-0.312h-0.016c-0.043,0.091-0.103,0.179-0.18,0.265c-0.077,0.085-0.169,0.161-0.276,0.228
		c-0.107,0.066-0.227,0.12-0.36,0.16c-0.134,0.04-0.278,0.06-0.432,0.06c-0.246,0-0.458-0.037-0.636-0.111
		c-0.179-0.075-0.327-0.179-0.444-0.312c-0.117-0.133-0.204-0.295-0.26-0.483c-0.056-0.189-0.084-0.396-0.084-0.62V29.97h0.624
		v2.248c0,0.314,0.069,0.562,0.208,0.744s0.355,0.271,0.648,0.271c0.203,0,0.377-0.034,0.524-0.104
		c0.146-0.069,0.267-0.168,0.36-0.296s0.163-0.28,0.208-0.456s0.068-0.371,0.068-0.584V29.97h0.624V32.827z"/>
	<path d="M18.522,30.499h-1.104v1.872c0,0.122,0.002,0.235,0.008,0.34c0.005,0.104,0.027,0.194,0.064,0.271
		c0.037,0.078,0.093,0.14,0.168,0.185s0.181,0.067,0.32,0.067c0.09,0,0.184-0.01,0.28-0.031s0.187-0.054,0.272-0.097l0.024,0.568
		c-0.106,0.048-0.225,0.083-0.356,0.104c-0.131,0.021-0.255,0.031-0.372,0.031c-0.224,0-0.403-0.029-0.536-0.088
		c-0.134-0.059-0.238-0.141-0.312-0.248c-0.075-0.106-0.124-0.238-0.148-0.396c-0.024-0.157-0.036-0.332-0.036-0.524v-2.056h-0.816
		V29.97h0.816v-1.063h0.624v1.063h1.104V30.499z"/>
	<path d="M19.29,30.858c0-0.17-0.005-0.33-0.016-0.479c-0.011-0.149-0.016-0.285-0.016-0.408h0.592c0,0.102,0.003,0.203,0.008,0.304
		c0.005,0.102,0.008,0.206,0.008,0.312h0.016c0.042-0.091,0.103-0.179,0.18-0.264c0.078-0.086,0.169-0.162,0.276-0.229
		c0.106-0.066,0.227-0.12,0.36-0.16s0.277-0.06,0.432-0.06c0.042,0,0.085,0.003,0.128,0.008c0.042,0.006,0.085,0.016,0.128,0.032
		l-0.04,0.632c-0.107-0.032-0.219-0.048-0.336-0.048c-0.384,0-0.663,0.124-0.836,0.372s-0.26,0.588-0.26,1.02v1.824H19.29V30.858z"
		/>
	<path d="M22.018,28.506c0-0.123,0.044-0.229,0.132-0.32c0.088-0.09,0.196-0.136,0.324-0.136s0.236,0.046,0.324,0.136
		c0.088,0.091,0.132,0.197,0.132,0.32c0,0.134-0.043,0.243-0.128,0.328c-0.085,0.085-0.195,0.128-0.328,0.128
		s-0.243-0.043-0.328-0.128S22.018,28.64,22.018,28.506z M22.162,29.97h0.624v3.744h-0.624V29.97z"/>
	<path d="M26.074,30.499H24.97v1.872c0,0.122,0.002,0.235,0.008,0.34c0.005,0.104,0.027,0.194,0.064,0.271
		c0.037,0.078,0.093,0.14,0.168,0.185s0.181,0.067,0.32,0.067c0.09,0,0.184-0.01,0.28-0.031s0.187-0.054,0.272-0.097l0.024,0.568
		c-0.106,0.048-0.225,0.083-0.356,0.104c-0.131,0.021-0.255,0.031-0.372,0.031c-0.224,0-0.403-0.029-0.536-0.088
		c-0.134-0.059-0.238-0.141-0.312-0.248c-0.075-0.106-0.124-0.238-0.148-0.396c-0.024-0.157-0.036-0.332-0.036-0.524v-2.056H23.53
		V29.97h0.816v-1.063h0.624v1.063h1.104V30.499z"/>
	<path d="M26.761,28.506c0-0.123,0.044-0.229,0.132-0.32c0.088-0.09,0.196-0.136,0.324-0.136s0.236,0.046,0.324,0.136
		c0.088,0.091,0.132,0.197,0.132,0.32c0,0.134-0.043,0.243-0.128,0.328c-0.085,0.085-0.195,0.128-0.328,0.128
		s-0.243-0.043-0.328-0.128S26.761,28.64,26.761,28.506z M26.906,29.97h0.624v3.744h-0.624V29.97z"/>
	<path d="M28.553,31.842c0-0.293,0.051-0.56,0.152-0.8c0.102-0.24,0.24-0.446,0.416-0.62c0.176-0.173,0.387-0.308,0.632-0.404
		c0.245-0.096,0.512-0.144,0.8-0.144s0.555,0.048,0.8,0.144c0.246,0.097,0.456,0.231,0.632,0.404c0.176,0.174,0.314,0.38,0.416,0.62
		c0.101,0.24,0.152,0.507,0.152,0.8c0,0.293-0.051,0.561-0.152,0.8c-0.102,0.24-0.24,0.447-0.416,0.62
		c-0.176,0.174-0.387,0.309-0.632,0.404c-0.245,0.096-0.512,0.144-0.8,0.144s-0.555-0.048-0.8-0.144
		c-0.246-0.096-0.456-0.23-0.632-0.404c-0.176-0.173-0.314-0.38-0.416-0.62C28.604,32.403,28.553,32.135,28.553,31.842z
		 M29.225,31.842c0,0.197,0.031,0.38,0.092,0.548c0.061,0.168,0.15,0.315,0.268,0.44c0.117,0.125,0.257,0.224,0.42,0.296
		c0.163,0.072,0.345,0.107,0.548,0.107s0.385-0.035,0.548-0.107s0.303-0.171,0.42-0.296c0.117-0.125,0.207-0.272,0.268-0.44
		c0.062-0.168,0.092-0.351,0.092-0.548c0-0.197-0.031-0.38-0.092-0.548c-0.061-0.168-0.15-0.314-0.268-0.44
		c-0.118-0.125-0.258-0.224-0.42-0.296c-0.163-0.071-0.345-0.107-0.548-0.107s-0.385,0.036-0.548,0.107
		c-0.163,0.072-0.303,0.171-0.42,0.296c-0.118,0.126-0.207,0.272-0.268,0.44C29.256,31.462,29.225,31.645,29.225,31.842z"/>
	<path d="M33.521,30.858c0-0.17-0.005-0.33-0.016-0.479c-0.011-0.149-0.016-0.285-0.016-0.408h0.592
		c0,0.102,0.003,0.203,0.008,0.304c0.005,0.102,0.008,0.206,0.008,0.312h0.016c0.042-0.091,0.103-0.179,0.18-0.264
		c0.078-0.086,0.169-0.162,0.276-0.229c0.106-0.066,0.227-0.12,0.36-0.16s0.277-0.06,0.432-0.06c0.245,0,0.457,0.037,0.636,0.112
		c0.179,0.074,0.327,0.179,0.444,0.312c0.117,0.134,0.204,0.295,0.26,0.484s0.084,0.396,0.084,0.62v2.312h-0.624v-2.248
		c0-0.314-0.069-0.562-0.208-0.744c-0.139-0.181-0.354-0.271-0.648-0.271c-0.203,0-0.377,0.034-0.524,0.104
		c-0.147,0.069-0.267,0.168-0.36,0.296c-0.094,0.128-0.163,0.28-0.208,0.456c-0.045,0.176-0.068,0.371-0.068,0.584v1.824h-0.624
		V30.858z"/>
</g>
<g>
	<path d="M12.47,43.955c-0.112-0.182-0.262-0.313-0.448-0.396c-0.187-0.083-0.382-0.124-0.584-0.124
		c-0.149,0-0.296,0.019-0.44,0.056c-0.144,0.037-0.273,0.094-0.388,0.168c-0.114,0.075-0.207,0.173-0.276,0.296
		s-0.104,0.267-0.104,0.432c0,0.129,0.02,0.242,0.06,0.341s0.105,0.188,0.196,0.268s0.213,0.154,0.368,0.224
		c0.154,0.069,0.344,0.139,0.568,0.208c0.218,0.069,0.43,0.145,0.636,0.225c0.205,0.08,0.387,0.181,0.544,0.304
		s0.282,0.276,0.376,0.46c0.093,0.185,0.14,0.415,0.14,0.692c0,0.282-0.056,0.527-0.168,0.735s-0.26,0.38-0.443,0.517
		c-0.185,0.136-0.396,0.237-0.637,0.304s-0.487,0.1-0.744,0.1c-0.165,0-0.33-0.015-0.496-0.044
		c-0.165-0.029-0.323-0.074-0.476-0.136s-0.295-0.142-0.428-0.24c-0.134-0.099-0.248-0.22-0.344-0.363l0.575-0.473
		c0.123,0.208,0.294,0.365,0.513,0.473c0.219,0.106,0.45,0.159,0.695,0.159c0.145,0,0.29-0.021,0.437-0.063s0.278-0.105,0.396-0.188
		c0.117-0.082,0.214-0.185,0.288-0.308c0.075-0.123,0.112-0.264,0.112-0.424c0-0.176-0.029-0.318-0.088-0.428
		s-0.149-0.204-0.272-0.284c-0.122-0.08-0.277-0.152-0.464-0.216c-0.187-0.064-0.405-0.139-0.656-0.225
		c-0.202-0.063-0.389-0.137-0.56-0.22S10.039,45.6,9.913,45.48c-0.125-0.12-0.224-0.265-0.296-0.433S9.51,44.678,9.51,44.443
		c0-0.272,0.053-0.51,0.159-0.712c0.107-0.203,0.251-0.372,0.433-0.509c0.181-0.136,0.387-0.238,0.616-0.308
		c0.229-0.069,0.469-0.104,0.72-0.104c0.32,0,0.612,0.049,0.876,0.147s0.5,0.271,0.708,0.517L12.47,43.955z"/>
	<path d="M13.901,46.747c0-0.293,0.051-0.56,0.152-0.8s0.24-0.446,0.416-0.62c0.176-0.173,0.387-0.308,0.632-0.404
		c0.245-0.096,0.512-0.144,0.8-0.144c0.288,0,0.555,0.048,0.8,0.144c0.246,0.097,0.456,0.231,0.633,0.404
		c0.176,0.174,0.314,0.38,0.416,0.62c0.101,0.24,0.151,0.507,0.151,0.8s-0.051,0.561-0.151,0.8c-0.102,0.24-0.24,0.447-0.416,0.62
		c-0.177,0.174-0.387,0.309-0.633,0.404c-0.245,0.096-0.512,0.144-0.8,0.144c-0.288,0-0.555-0.048-0.8-0.144
		s-0.456-0.23-0.632-0.404c-0.176-0.173-0.314-0.38-0.416-0.62C13.952,47.308,13.901,47.04,13.901,46.747z M14.573,46.747
		c0,0.197,0.031,0.38,0.093,0.548c0.061,0.168,0.15,0.315,0.268,0.44s0.257,0.224,0.42,0.296s0.346,0.107,0.548,0.107
		c0.203,0,0.386-0.035,0.548-0.107c0.163-0.072,0.303-0.171,0.421-0.296c0.117-0.125,0.206-0.272,0.268-0.44
		s0.092-0.351,0.092-0.548s-0.03-0.38-0.092-0.548s-0.15-0.314-0.268-0.44c-0.118-0.125-0.258-0.224-0.421-0.296
		c-0.162-0.071-0.345-0.107-0.548-0.107c-0.202,0-0.385,0.036-0.548,0.107c-0.163,0.072-0.303,0.171-0.42,0.296
		c-0.117,0.126-0.207,0.272-0.268,0.44C14.604,46.367,14.573,46.55,14.573,46.747z"/>
	<path d="M21.533,45.812c-0.133-0.16-0.277-0.276-0.432-0.349c-0.154-0.071-0.325-0.107-0.512-0.107
		c-0.208,0-0.393,0.036-0.553,0.107c-0.159,0.072-0.292,0.172-0.396,0.3c-0.104,0.129-0.183,0.276-0.236,0.444
		c-0.053,0.168-0.08,0.348-0.08,0.54s0.031,0.372,0.093,0.54c0.061,0.168,0.146,0.316,0.256,0.444s0.241,0.228,0.396,0.3
		c0.155,0.072,0.328,0.107,0.521,0.107c0.41,0,0.728-0.154,0.952-0.464l0.464,0.44c-0.182,0.208-0.396,0.36-0.641,0.456
		s-0.504,0.144-0.775,0.144c-0.288,0-0.553-0.048-0.792-0.144c-0.24-0.096-0.444-0.232-0.612-0.408s-0.299-0.384-0.392-0.624
		c-0.094-0.24-0.141-0.504-0.141-0.792c0-0.282,0.047-0.544,0.141-0.784c0.093-0.24,0.225-0.447,0.396-0.624
		c0.171-0.176,0.375-0.312,0.612-0.412c0.237-0.099,0.5-0.147,0.788-0.147c0.277,0,0.54,0.048,0.788,0.144
		c0.248,0.097,0.465,0.246,0.651,0.448L21.533,45.812z"/>
	<path d="M22.637,43.411c0-0.123,0.044-0.229,0.133-0.32c0.088-0.09,0.195-0.136,0.323-0.136s0.236,0.046,0.324,0.136
		c0.088,0.091,0.132,0.197,0.132,0.32c0,0.134-0.043,0.243-0.128,0.328s-0.194,0.128-0.328,0.128c-0.133,0-0.242-0.043-0.328-0.128
		C22.68,43.654,22.637,43.545,22.637,43.411z M22.781,44.875h0.624v3.744h-0.624V44.875z"/>
	<path d="M24.597,45.356c0.192-0.197,0.42-0.343,0.685-0.437c0.264-0.093,0.531-0.14,0.804-0.14c0.555,0,0.955,0.131,1.2,0.392
		c0.245,0.262,0.368,0.659,0.368,1.192v1.607c0,0.107,0.005,0.218,0.016,0.332c0.011,0.115,0.024,0.221,0.04,0.316h-0.6
		c-0.021-0.085-0.034-0.18-0.036-0.284c-0.003-0.104-0.004-0.196-0.004-0.275h-0.017c-0.122,0.191-0.286,0.349-0.492,0.472
		c-0.205,0.122-0.451,0.184-0.739,0.184c-0.192,0-0.372-0.023-0.54-0.071c-0.168-0.049-0.315-0.119-0.44-0.213
		c-0.125-0.093-0.226-0.209-0.3-0.348c-0.075-0.139-0.112-0.299-0.112-0.479c0-0.31,0.08-0.553,0.24-0.729s0.358-0.307,0.596-0.392
		c0.237-0.086,0.493-0.139,0.769-0.16c0.274-0.021,0.526-0.032,0.756-0.032h0.24v-0.112c0-0.271-0.082-0.477-0.244-0.615
		c-0.163-0.139-0.391-0.208-0.685-0.208c-0.202,0-0.401,0.033-0.596,0.1s-0.366,0.17-0.516,0.308L24.597,45.356z M26.405,46.819
		c-0.4,0-0.718,0.056-0.952,0.168c-0.235,0.112-0.353,0.296-0.353,0.552c0,0.234,0.079,0.401,0.236,0.5s0.354,0.148,0.588,0.148
		c0.182,0,0.34-0.031,0.477-0.093c0.136-0.061,0.249-0.143,0.34-0.243c0.091-0.102,0.16-0.221,0.208-0.356s0.074-0.281,0.08-0.436
		v-0.24H26.405z"/>
	<path d="M28.854,42.571h0.624v6.048h-0.624V42.571z"/>
	<path d="M7.874,51.955c-0.112-0.182-0.262-0.313-0.448-0.396c-0.187-0.083-0.382-0.124-0.584-0.124
		c-0.149,0-0.296,0.019-0.44,0.056c-0.144,0.037-0.273,0.094-0.388,0.168c-0.114,0.075-0.207,0.173-0.276,0.296
		s-0.104,0.267-0.104,0.432c0,0.129,0.02,0.242,0.06,0.341s0.105,0.188,0.196,0.268s0.213,0.154,0.368,0.224
		c0.154,0.069,0.344,0.139,0.568,0.208c0.218,0.069,0.43,0.145,0.636,0.225c0.205,0.08,0.387,0.181,0.544,0.304
		s0.282,0.276,0.376,0.46c0.093,0.185,0.14,0.415,0.14,0.692c0,0.282-0.056,0.527-0.168,0.735s-0.26,0.38-0.443,0.517
		c-0.185,0.136-0.396,0.237-0.637,0.304s-0.487,0.1-0.744,0.1c-0.165,0-0.33-0.015-0.496-0.044
		c-0.165-0.029-0.323-0.074-0.476-0.136s-0.295-0.142-0.428-0.24c-0.134-0.099-0.248-0.22-0.344-0.363l0.575-0.473
		c0.123,0.208,0.294,0.365,0.513,0.473c0.219,0.106,0.45,0.159,0.695,0.159c0.145,0,0.29-0.021,0.437-0.063s0.278-0.105,0.396-0.188
		c0.117-0.082,0.214-0.185,0.288-0.308c0.075-0.123,0.112-0.264,0.112-0.424c0-0.176-0.029-0.318-0.088-0.428
		s-0.149-0.204-0.272-0.284c-0.122-0.08-0.277-0.152-0.464-0.216c-0.187-0.064-0.405-0.139-0.656-0.225
		c-0.202-0.063-0.389-0.137-0.56-0.22C5.591,53.7,5.443,53.6,5.317,53.48c-0.125-0.12-0.224-0.265-0.296-0.433
		s-0.107-0.369-0.107-0.604c0-0.272,0.053-0.51,0.159-0.712c0.107-0.203,0.251-0.372,0.433-0.509
		c0.181-0.136,0.387-0.238,0.616-0.308c0.229-0.069,0.469-0.104,0.72-0.104c0.32,0,0.612,0.049,0.876,0.147s0.5,0.271,0.708,0.517
		L7.874,51.955z"/>
	<path d="M11.57,53.403h-1.104v1.872c0,0.122,0.003,0.235,0.008,0.34c0.006,0.104,0.027,0.194,0.064,0.271
		c0.037,0.078,0.093,0.14,0.168,0.185c0.074,0.045,0.181,0.067,0.32,0.067c0.09,0,0.184-0.01,0.279-0.031
		c0.097-0.021,0.187-0.054,0.272-0.097l0.023,0.568c-0.106,0.048-0.225,0.083-0.355,0.104c-0.131,0.021-0.255,0.031-0.372,0.031
		c-0.224,0-0.403-0.029-0.536-0.088c-0.134-0.059-0.237-0.141-0.312-0.248c-0.075-0.106-0.124-0.238-0.148-0.396
		s-0.036-0.332-0.036-0.524v-2.056H9.026v-0.528h0.815v-1.063h0.624v1.063h1.104V53.403z"/>
	<path d="M12.337,53.763c0-0.17-0.005-0.33-0.016-0.479s-0.016-0.285-0.016-0.408h0.592c0,0.102,0.003,0.203,0.008,0.304
		c0.005,0.102,0.008,0.206,0.008,0.312h0.017c0.042-0.091,0.103-0.179,0.18-0.264c0.077-0.086,0.169-0.162,0.276-0.229
		c0.106-0.066,0.227-0.12,0.359-0.16c0.134-0.04,0.277-0.06,0.433-0.06c0.042,0,0.085,0.003,0.128,0.008
		c0.042,0.006,0.085,0.016,0.128,0.032l-0.04,0.632c-0.107-0.032-0.219-0.048-0.336-0.048c-0.384,0-0.663,0.124-0.836,0.372
		c-0.174,0.248-0.261,0.588-0.261,1.02v1.824h-0.624V53.763z"/>
	<path d="M15.105,53.356c0.192-0.197,0.42-0.343,0.685-0.437c0.264-0.093,0.531-0.14,0.804-0.14c0.555,0,0.955,0.131,1.2,0.392
		c0.245,0.262,0.368,0.659,0.368,1.192v1.607c0,0.107,0.005,0.218,0.016,0.332c0.011,0.115,0.024,0.221,0.04,0.316h-0.6
		c-0.021-0.085-0.034-0.18-0.036-0.284c-0.003-0.104-0.004-0.196-0.004-0.275h-0.017c-0.122,0.191-0.286,0.349-0.492,0.472
		c-0.205,0.122-0.451,0.184-0.739,0.184c-0.192,0-0.372-0.023-0.54-0.071c-0.168-0.049-0.315-0.119-0.44-0.213
		c-0.125-0.093-0.226-0.209-0.3-0.348c-0.075-0.139-0.112-0.299-0.112-0.479c0-0.31,0.08-0.553,0.24-0.729s0.358-0.307,0.596-0.392
		c0.237-0.086,0.493-0.139,0.769-0.16c0.274-0.021,0.526-0.032,0.756-0.032h0.24v-0.112c0-0.271-0.082-0.477-0.244-0.615
		c-0.163-0.139-0.391-0.208-0.685-0.208c-0.202,0-0.401,0.033-0.596,0.1c-0.194,0.066-0.366,0.17-0.516,0.308L15.105,53.356z
		 M16.914,54.819c-0.4,0-0.718,0.056-0.952,0.168c-0.235,0.112-0.353,0.296-0.353,0.552c0,0.234,0.079,0.401,0.236,0.5
		c0.157,0.099,0.354,0.148,0.588,0.148c0.182,0,0.34-0.031,0.477-0.093c0.136-0.061,0.249-0.143,0.34-0.243
		c0.091-0.102,0.16-0.221,0.208-0.356s0.074-0.281,0.08-0.436v-0.24H16.914z"/>
	<path d="M21.354,53.403H20.25v1.872c0,0.122,0.002,0.235,0.008,0.34c0.005,0.104,0.026,0.194,0.063,0.271
		c0.037,0.078,0.094,0.14,0.168,0.185c0.075,0.045,0.182,0.067,0.32,0.067c0.091,0,0.184-0.01,0.28-0.031
		c0.096-0.021,0.187-0.054,0.271-0.097l0.024,0.568c-0.106,0.048-0.226,0.083-0.356,0.104c-0.131,0.021-0.255,0.031-0.372,0.031
		c-0.224,0-0.402-0.029-0.535-0.088c-0.134-0.059-0.238-0.141-0.312-0.248c-0.074-0.106-0.124-0.238-0.147-0.396
		c-0.024-0.157-0.036-0.332-0.036-0.524v-2.056H18.81v-0.528h0.816v-1.063h0.624v1.063h1.104V53.403z"/>
	<path d="M25.466,55.94c-0.225,0.288-0.47,0.489-0.736,0.604c-0.267,0.115-0.576,0.172-0.928,0.172
		c-0.294,0-0.558-0.052-0.792-0.155c-0.235-0.104-0.434-0.244-0.597-0.421c-0.162-0.176-0.287-0.384-0.376-0.623
		c-0.088-0.24-0.132-0.496-0.132-0.769c0-0.288,0.048-0.553,0.145-0.796c0.096-0.242,0.229-0.45,0.399-0.624
		c0.171-0.173,0.374-0.308,0.608-0.404c0.234-0.096,0.49-0.144,0.768-0.144c0.262,0,0.502,0.044,0.721,0.132
		s0.406,0.216,0.563,0.384s0.278,0.374,0.364,0.616c0.085,0.243,0.128,0.519,0.128,0.828v0.2h-3.024
		c0.011,0.16,0.05,0.313,0.116,0.46s0.153,0.274,0.26,0.384c0.107,0.109,0.232,0.196,0.376,0.26
		c0.145,0.064,0.302,0.096,0.473,0.096c0.271,0,0.501-0.048,0.688-0.144s0.354-0.237,0.504-0.424L25.466,55.94z M24.93,54.411
		c-0.011-0.32-0.115-0.576-0.312-0.768c-0.197-0.192-0.469-0.288-0.815-0.288s-0.627,0.096-0.84,0.288
		c-0.214,0.191-0.342,0.447-0.385,0.768H24.93z"/>
	<path d="M30.306,56.451c0,0.683-0.175,1.201-0.524,1.556s-0.854,0.532-1.516,0.532c-0.368,0-0.7-0.054-0.996-0.16
		s-0.577-0.29-0.844-0.552l0.447-0.512c0.197,0.213,0.407,0.374,0.628,0.483c0.222,0.109,0.477,0.164,0.765,0.164
		c0.277,0,0.508-0.041,0.691-0.124c0.185-0.082,0.329-0.194,0.437-0.336c0.106-0.142,0.181-0.303,0.224-0.483
		c0.043-0.182,0.064-0.371,0.064-0.568v-0.48h-0.017c-0.149,0.24-0.344,0.416-0.584,0.528s-0.485,0.168-0.735,0.168
		c-0.294,0-0.563-0.048-0.809-0.144c-0.245-0.097-0.456-0.229-0.632-0.4s-0.312-0.373-0.408-0.607
		c-0.096-0.235-0.144-0.491-0.144-0.769c0-0.304,0.048-0.578,0.144-0.824c0.097-0.245,0.23-0.452,0.404-0.62
		c0.173-0.168,0.383-0.297,0.628-0.388s0.518-0.136,0.816-0.136c0.128,0,0.256,0.015,0.384,0.044s0.252,0.074,0.372,0.136
		s0.228,0.139,0.324,0.232c0.096,0.093,0.176,0.201,0.239,0.324h0.017v-0.641h0.624V56.451z M27.025,54.747
		c0,0.192,0.034,0.369,0.104,0.532c0.069,0.162,0.164,0.304,0.284,0.424s0.26,0.215,0.42,0.284s0.331,0.104,0.513,0.104
		c0.213,0,0.402-0.037,0.567-0.111c0.165-0.075,0.306-0.175,0.42-0.301c0.115-0.125,0.201-0.269,0.261-0.432
		c0.059-0.162,0.088-0.335,0.088-0.516c0-0.203-0.032-0.389-0.097-0.557c-0.063-0.168-0.154-0.312-0.271-0.436
		s-0.259-0.218-0.424-0.284c-0.166-0.066-0.347-0.1-0.544-0.1c-0.198,0-0.378,0.036-0.54,0.107
		c-0.163,0.072-0.302,0.171-0.416,0.296c-0.115,0.126-0.204,0.272-0.269,0.44C27.058,54.367,27.025,54.55,27.025,54.747z"/>
	<path d="M32.833,57.476c-0.063,0.159-0.129,0.305-0.195,0.436c-0.067,0.131-0.146,0.242-0.24,0.336s-0.205,0.165-0.336,0.216
		s-0.289,0.076-0.476,0.076c-0.091,0-0.186-0.005-0.284-0.016s-0.191-0.038-0.276-0.08l0.08-0.544
		c0.064,0.026,0.131,0.044,0.2,0.052s0.149,0.012,0.24,0.012c0.202,0,0.352-0.056,0.447-0.168c0.097-0.111,0.179-0.261,0.248-0.448
		l0.256-0.703l-1.552-3.769h0.729l1.159,2.937h0.017l1.112-2.937h0.68L32.833,57.476z"/>
</g>
<g>
	<path d="M6.374,83.694H8.55c0.187,0,0.384,0.021,0.592,0.064c0.208,0.042,0.415,0.11,0.62,0.203
		c0.205,0.094,0.402,0.215,0.592,0.364s0.356,0.33,0.5,0.54c0.145,0.211,0.259,0.453,0.344,0.729
		c0.086,0.274,0.128,0.585,0.128,0.932s-0.042,0.657-0.128,0.932c-0.085,0.275-0.199,0.518-0.344,0.729
		c-0.144,0.211-0.311,0.391-0.5,0.54s-0.387,0.271-0.592,0.364c-0.205,0.093-0.412,0.161-0.62,0.203
		c-0.208,0.043-0.405,0.064-0.592,0.064H6.374V83.694z M7.046,88.734h1.279c0.326,0,0.627-0.043,0.904-0.128s0.518-0.218,0.72-0.396
		c0.203-0.178,0.363-0.406,0.48-0.684s0.176-0.61,0.176-1s-0.059-0.723-0.176-1s-0.277-0.505-0.48-0.684
		c-0.202-0.179-0.442-0.311-0.72-0.396c-0.277-0.085-0.578-0.128-0.904-0.128H7.046V88.734z"/>
	<path d="M12.205,84.15c0-0.123,0.044-0.229,0.133-0.32c0.088-0.09,0.195-0.136,0.323-0.136s0.236,0.046,0.324,0.136
		c0.088,0.091,0.132,0.197,0.132,0.32c0,0.134-0.043,0.243-0.128,0.328s-0.194,0.128-0.328,0.128c-0.133,0-0.242-0.043-0.328-0.128
		C12.248,84.393,12.205,84.283,12.205,84.15z M12.35,85.614h0.624v3.744H12.35V85.614z"/>
	<path d="M14.293,88.373c0.123,0.155,0.258,0.277,0.404,0.368s0.332,0.136,0.556,0.136c0.097,0,0.193-0.01,0.292-0.031
		s0.188-0.057,0.269-0.104s0.144-0.107,0.191-0.18c0.049-0.072,0.072-0.159,0.072-0.26c0-0.102-0.022-0.185-0.067-0.248
		c-0.046-0.064-0.105-0.119-0.181-0.164c-0.074-0.046-0.16-0.081-0.256-0.108c-0.096-0.026-0.194-0.051-0.296-0.072
		c-0.176-0.037-0.344-0.079-0.504-0.128c-0.16-0.048-0.3-0.11-0.42-0.188s-0.216-0.178-0.288-0.3
		c-0.072-0.123-0.108-0.28-0.108-0.473c0-0.181,0.04-0.341,0.12-0.479s0.187-0.254,0.32-0.344c0.133-0.091,0.282-0.16,0.448-0.208
		c0.165-0.049,0.336-0.072,0.512-0.072c0.267,0,0.513,0.053,0.74,0.16c0.227,0.106,0.403,0.279,0.531,0.52l-0.52,0.344
		c-0.08-0.133-0.186-0.241-0.316-0.323c-0.131-0.083-0.289-0.124-0.476-0.124c-0.085,0-0.172,0.011-0.26,0.031
		c-0.088,0.021-0.167,0.054-0.236,0.097s-0.127,0.097-0.172,0.164c-0.046,0.066-0.068,0.143-0.068,0.228
		c0,0.08,0.025,0.148,0.076,0.204s0.12,0.105,0.208,0.148c0.088,0.042,0.189,0.08,0.304,0.111c0.115,0.032,0.233,0.059,0.356,0.08
		c0.165,0.032,0.322,0.073,0.472,0.124c0.149,0.051,0.28,0.119,0.393,0.204c0.111,0.085,0.199,0.192,0.264,0.32
		s0.096,0.285,0.096,0.472c0,0.214-0.042,0.395-0.128,0.544c-0.085,0.149-0.198,0.271-0.34,0.364
		c-0.142,0.093-0.302,0.161-0.479,0.204c-0.179,0.042-0.361,0.063-0.549,0.063c-0.319,0-0.596-0.049-0.827-0.147
		c-0.232-0.099-0.441-0.281-0.629-0.548L14.293,88.373z"/>
	<path d="M17.573,86.094c0.192-0.197,0.42-0.343,0.685-0.437c0.264-0.093,0.531-0.14,0.804-0.14c0.555,0,0.955,0.131,1.2,0.392
		c0.245,0.262,0.368,0.659,0.368,1.192v1.607c0,0.107,0.005,0.218,0.016,0.332c0.011,0.115,0.024,0.221,0.04,0.316h-0.6
		c-0.021-0.085-0.034-0.18-0.036-0.284c-0.003-0.104-0.004-0.196-0.004-0.275h-0.017c-0.122,0.191-0.286,0.349-0.492,0.472
		c-0.205,0.122-0.451,0.184-0.739,0.184c-0.192,0-0.372-0.023-0.54-0.071c-0.168-0.049-0.315-0.119-0.44-0.213
		c-0.125-0.093-0.226-0.209-0.3-0.348c-0.075-0.139-0.112-0.299-0.112-0.479c0-0.31,0.08-0.553,0.24-0.729s0.358-0.307,0.596-0.392
		c0.237-0.086,0.493-0.139,0.769-0.16c0.274-0.021,0.526-0.032,0.756-0.032h0.24v-0.112c0-0.271-0.082-0.477-0.244-0.615
		c-0.163-0.139-0.391-0.208-0.685-0.208c-0.202,0-0.401,0.033-0.596,0.1s-0.366,0.17-0.516,0.308L17.573,86.094z M19.382,87.558
		c-0.4,0-0.718,0.056-0.952,0.168c-0.235,0.112-0.353,0.296-0.353,0.552c0,0.234,0.079,0.401,0.236,0.5s0.354,0.148,0.588,0.148
		c0.182,0,0.34-0.031,0.477-0.093c0.136-0.061,0.249-0.143,0.34-0.243c0.091-0.102,0.16-0.221,0.208-0.356s0.074-0.281,0.08-0.436
		v-0.24H19.382z"/>
	<path d="M21.854,88.373c0.122,0.155,0.257,0.277,0.404,0.368c0.146,0.091,0.332,0.136,0.556,0.136c0.096,0,0.193-0.01,0.292-0.031
		s0.188-0.057,0.268-0.104s0.145-0.107,0.192-0.18s0.072-0.159,0.072-0.26c0-0.102-0.023-0.185-0.068-0.248
		c-0.045-0.064-0.105-0.119-0.18-0.164c-0.075-0.046-0.16-0.081-0.256-0.108c-0.097-0.026-0.195-0.051-0.297-0.072
		c-0.176-0.037-0.344-0.079-0.504-0.128c-0.159-0.048-0.3-0.11-0.42-0.188s-0.216-0.178-0.288-0.3
		c-0.071-0.123-0.107-0.28-0.107-0.473c0-0.181,0.04-0.341,0.12-0.479s0.187-0.254,0.319-0.344c0.134-0.091,0.283-0.16,0.448-0.208
		c0.165-0.049,0.336-0.072,0.512-0.072c0.267,0,0.514,0.053,0.74,0.16c0.227,0.106,0.404,0.279,0.532,0.52l-0.521,0.344
		c-0.079-0.133-0.185-0.241-0.315-0.323c-0.131-0.083-0.289-0.124-0.477-0.124c-0.085,0-0.172,0.011-0.26,0.031
		c-0.088,0.021-0.167,0.054-0.235,0.097c-0.069,0.043-0.127,0.097-0.173,0.164c-0.045,0.066-0.067,0.143-0.067,0.228
		c0,0.08,0.025,0.148,0.076,0.204c0.05,0.056,0.119,0.105,0.208,0.148c0.088,0.042,0.188,0.08,0.304,0.111
		c0.114,0.032,0.233,0.059,0.355,0.08c0.166,0.032,0.323,0.073,0.473,0.124s0.279,0.119,0.392,0.204s0.2,0.192,0.265,0.32
		c0.063,0.128,0.096,0.285,0.096,0.472c0,0.214-0.043,0.395-0.128,0.544c-0.086,0.149-0.199,0.271-0.34,0.364
		c-0.142,0.093-0.302,0.161-0.48,0.204c-0.179,0.042-0.361,0.063-0.548,0.063c-0.32,0-0.596-0.049-0.828-0.147
		s-0.441-0.281-0.628-0.548L21.854,88.373z"/>
	<path d="M27.229,86.142h-1.104v1.872c0,0.122,0.002,0.235,0.008,0.34c0.005,0.104,0.026,0.194,0.063,0.271
		c0.037,0.078,0.094,0.14,0.168,0.185c0.075,0.045,0.182,0.067,0.32,0.067c0.091,0,0.184-0.01,0.28-0.031
		c0.096-0.021,0.187-0.054,0.271-0.097l0.024,0.568c-0.106,0.048-0.226,0.083-0.356,0.104c-0.131,0.021-0.255,0.031-0.372,0.031
		c-0.224,0-0.402-0.029-0.535-0.088c-0.134-0.059-0.238-0.141-0.312-0.248c-0.074-0.106-0.124-0.238-0.147-0.396
		c-0.024-0.157-0.036-0.332-0.036-0.524v-2.056h-0.816v-0.528h0.816V84.55h0.624v1.063h1.104V86.142z"/>
	<path d="M31.342,88.678c-0.225,0.288-0.47,0.489-0.736,0.604c-0.267,0.115-0.576,0.172-0.928,0.172
		c-0.294,0-0.558-0.052-0.792-0.155c-0.235-0.104-0.434-0.244-0.597-0.421c-0.162-0.176-0.287-0.384-0.376-0.623
		c-0.088-0.24-0.132-0.496-0.132-0.769c0-0.288,0.048-0.553,0.145-0.796c0.096-0.242,0.229-0.45,0.399-0.624
		c0.171-0.173,0.374-0.308,0.608-0.404c0.234-0.096,0.49-0.144,0.768-0.144c0.262,0,0.502,0.044,0.721,0.132
		s0.406,0.216,0.563,0.384s0.278,0.374,0.364,0.616c0.085,0.243,0.128,0.519,0.128,0.828v0.2h-3.024
		c0.011,0.16,0.05,0.313,0.116,0.46s0.153,0.274,0.26,0.384c0.107,0.109,0.232,0.196,0.376,0.26
		c0.145,0.064,0.302,0.096,0.473,0.096c0.271,0,0.501-0.048,0.688-0.144s0.354-0.237,0.504-0.424L31.342,88.678z M30.806,87.15
		c-0.011-0.32-0.115-0.576-0.312-0.768c-0.197-0.192-0.469-0.288-0.815-0.288s-0.627,0.096-0.84,0.288
		c-0.214,0.191-0.342,0.447-0.385,0.768H30.806z"/>
	<path d="M32.445,86.501c0-0.17-0.006-0.33-0.016-0.479c-0.011-0.149-0.017-0.285-0.017-0.408h0.592
		c0,0.102,0.003,0.203,0.009,0.304c0.005,0.102,0.008,0.206,0.008,0.312h0.016c0.043-0.091,0.103-0.179,0.18-0.264
		c0.078-0.086,0.17-0.162,0.276-0.229s0.227-0.12,0.36-0.16c0.133-0.04,0.277-0.06,0.432-0.06c0.043,0,0.085,0.003,0.128,0.008
		c0.043,0.006,0.085,0.016,0.128,0.032l-0.04,0.632c-0.106-0.032-0.219-0.048-0.336-0.048c-0.384,0-0.662,0.124-0.836,0.372
		c-0.173,0.248-0.26,0.588-0.26,1.02v1.824h-0.624V86.501z"/>
	<path d="M3.582,91.694h1.447c0.272,0,0.543,0.016,0.812,0.048s0.511,0.102,0.724,0.208c0.214,0.107,0.387,0.263,0.521,0.468
		c0.133,0.206,0.2,0.484,0.2,0.837c0,0.415-0.126,0.752-0.376,1.008c-0.251,0.256-0.598,0.418-1.04,0.487l1.607,2.608H6.653
		l-1.535-2.544H4.254v2.544H3.582V91.694z M4.254,94.19h0.6c0.187,0,0.38-0.005,0.58-0.016s0.384-0.046,0.552-0.104
		s0.307-0.15,0.416-0.276c0.109-0.125,0.164-0.305,0.164-0.539c0-0.203-0.04-0.366-0.12-0.488c-0.08-0.123-0.185-0.218-0.315-0.284
		s-0.277-0.11-0.44-0.132c-0.162-0.021-0.326-0.032-0.492-0.032H4.254V94.19z"/>
	<path d="M11.702,96.678c-0.225,0.288-0.47,0.489-0.736,0.604c-0.267,0.115-0.576,0.172-0.928,0.172
		c-0.294,0-0.558-0.052-0.792-0.155c-0.235-0.104-0.434-0.244-0.597-0.421c-0.162-0.176-0.287-0.384-0.376-0.623
		c-0.088-0.24-0.132-0.496-0.132-0.769c0-0.288,0.048-0.553,0.145-0.796c0.096-0.242,0.229-0.45,0.399-0.624
		c0.171-0.173,0.374-0.308,0.608-0.404c0.234-0.096,0.49-0.144,0.768-0.144c0.262,0,0.502,0.044,0.721,0.132
		s0.406,0.216,0.563,0.384s0.278,0.374,0.364,0.616c0.085,0.243,0.128,0.519,0.128,0.828v0.2H8.813
		c0.011,0.16,0.05,0.313,0.116,0.46s0.153,0.274,0.26,0.384c0.107,0.109,0.232,0.196,0.376,0.26
		c0.145,0.064,0.302,0.096,0.473,0.096c0.271,0,0.501-0.048,0.688-0.144s0.354-0.237,0.504-0.424L11.702,96.678z M11.166,95.15
		c-0.011-0.32-0.115-0.576-0.312-0.768c-0.197-0.192-0.469-0.288-0.815-0.288s-0.627,0.096-0.84,0.288
		c-0.214,0.191-0.342,0.447-0.385,0.768H11.166z"/>
	<path d="M12.886,96.373c0.122,0.155,0.257,0.277,0.404,0.368c0.146,0.091,0.332,0.136,0.556,0.136c0.096,0,0.193-0.01,0.292-0.031
		s0.188-0.057,0.268-0.104s0.145-0.107,0.192-0.18s0.072-0.159,0.072-0.26c0-0.102-0.023-0.185-0.068-0.248
		c-0.045-0.064-0.105-0.119-0.18-0.164c-0.075-0.046-0.16-0.081-0.256-0.108c-0.097-0.026-0.195-0.051-0.297-0.072
		c-0.176-0.037-0.344-0.079-0.504-0.128c-0.159-0.048-0.3-0.11-0.42-0.188s-0.216-0.178-0.288-0.3
		c-0.071-0.123-0.107-0.28-0.107-0.473c0-0.181,0.04-0.341,0.12-0.479s0.187-0.254,0.319-0.344c0.134-0.091,0.283-0.16,0.448-0.208
		c0.165-0.049,0.336-0.072,0.512-0.072c0.267,0,0.514,0.053,0.74,0.16c0.227,0.106,0.404,0.279,0.532,0.52l-0.521,0.344
		c-0.079-0.133-0.185-0.241-0.315-0.323c-0.131-0.083-0.289-0.124-0.477-0.124c-0.085,0-0.172,0.011-0.26,0.031
		c-0.088,0.021-0.167,0.054-0.235,0.097c-0.069,0.043-0.127,0.097-0.173,0.164c-0.045,0.066-0.067,0.143-0.067,0.228
		c0,0.08,0.025,0.148,0.076,0.204c0.05,0.056,0.119,0.105,0.208,0.148c0.088,0.042,0.188,0.08,0.304,0.111
		c0.114,0.032,0.233,0.059,0.355,0.08c0.166,0.032,0.323,0.073,0.473,0.124s0.279,0.119,0.392,0.204s0.2,0.192,0.265,0.32
		c0.063,0.128,0.096,0.285,0.096,0.472c0,0.214-0.043,0.395-0.128,0.544c-0.086,0.149-0.199,0.271-0.34,0.364
		c-0.142,0.093-0.302,0.161-0.48,0.204c-0.179,0.042-0.361,0.063-0.548,0.063c-0.32,0-0.596-0.049-0.828-0.147
		s-0.441-0.281-0.628-0.548L12.886,96.373z"/>
	<path d="M16.182,93.614h0.624v0.544h0.016c0.171-0.202,0.369-0.359,0.596-0.472s0.477-0.168,0.748-0.168
		c0.294,0,0.562,0.049,0.805,0.147c0.242,0.1,0.449,0.236,0.619,0.412c0.171,0.177,0.305,0.384,0.4,0.624s0.145,0.502,0.145,0.784
		c0,0.283-0.049,0.544-0.145,0.784s-0.228,0.448-0.396,0.624s-0.367,0.313-0.597,0.412s-0.475,0.147-0.735,0.147
		c-0.336,0-0.631-0.073-0.885-0.22c-0.253-0.146-0.438-0.326-0.556-0.54h-0.016v2.488h-0.624V93.614z M16.806,95.486
		c0,0.197,0.03,0.38,0.092,0.548s0.15,0.315,0.268,0.44s0.258,0.224,0.42,0.296c0.163,0.072,0.346,0.107,0.549,0.107
		c0.202,0,0.385-0.035,0.548-0.107c0.162-0.072,0.303-0.171,0.42-0.296s0.206-0.272,0.268-0.44s0.092-0.351,0.092-0.548
		s-0.03-0.38-0.092-0.548s-0.15-0.314-0.268-0.44c-0.117-0.125-0.258-0.224-0.42-0.296c-0.163-0.071-0.346-0.107-0.548-0.107
		c-0.203,0-0.386,0.036-0.549,0.107c-0.162,0.072-0.303,0.171-0.42,0.296c-0.117,0.126-0.206,0.272-0.268,0.44
		S16.806,95.288,16.806,95.486z"/>
	<path d="M20.886,95.486c0-0.293,0.051-0.56,0.151-0.8c0.102-0.24,0.24-0.446,0.416-0.62c0.177-0.173,0.387-0.308,0.633-0.404
		c0.245-0.096,0.512-0.144,0.8-0.144s0.555,0.048,0.8,0.144c0.245,0.097,0.456,0.231,0.632,0.404c0.176,0.174,0.314,0.38,0.416,0.62
		s0.152,0.507,0.152,0.8s-0.051,0.561-0.152,0.8c-0.102,0.24-0.24,0.447-0.416,0.62c-0.176,0.174-0.387,0.309-0.632,0.404
		s-0.512,0.144-0.8,0.144s-0.555-0.048-0.8-0.144c-0.246-0.096-0.456-0.23-0.633-0.404c-0.176-0.173-0.314-0.38-0.416-0.62
		C20.937,96.046,20.886,95.779,20.886,95.486z M21.558,95.486c0,0.197,0.03,0.38,0.092,0.548s0.15,0.315,0.269,0.44
		c0.117,0.125,0.257,0.224,0.42,0.296c0.162,0.072,0.345,0.107,0.548,0.107c0.202,0,0.385-0.035,0.548-0.107
		c0.162-0.072,0.303-0.171,0.42-0.296s0.207-0.272,0.268-0.44c0.062-0.168,0.093-0.351,0.093-0.548s-0.031-0.38-0.093-0.548
		c-0.061-0.168-0.15-0.314-0.268-0.44c-0.117-0.125-0.258-0.224-0.42-0.296c-0.163-0.071-0.346-0.107-0.548-0.107
		c-0.203,0-0.386,0.036-0.548,0.107c-0.163,0.072-0.303,0.171-0.42,0.296c-0.118,0.126-0.207,0.272-0.269,0.44
		S21.558,95.288,21.558,95.486z"/>
	<path d="M25.854,94.501c0-0.17-0.006-0.33-0.016-0.479c-0.011-0.149-0.017-0.285-0.017-0.408h0.592
		c0,0.102,0.003,0.203,0.009,0.304c0.005,0.102,0.008,0.206,0.008,0.312h0.016c0.043-0.091,0.103-0.179,0.18-0.264
		c0.078-0.086,0.17-0.162,0.276-0.229s0.227-0.12,0.36-0.16c0.133-0.04,0.277-0.06,0.432-0.06c0.245,0,0.457,0.037,0.636,0.112
		c0.179,0.074,0.327,0.179,0.444,0.312c0.117,0.134,0.204,0.295,0.26,0.484c0.057,0.189,0.084,0.396,0.084,0.62v2.312h-0.624V95.11
		c0-0.314-0.069-0.562-0.208-0.744c-0.139-0.181-0.354-0.271-0.647-0.271c-0.203,0-0.378,0.034-0.524,0.104
		s-0.267,0.168-0.359,0.296c-0.094,0.128-0.163,0.28-0.208,0.456c-0.046,0.176-0.068,0.371-0.068,0.584v1.824h-0.624V94.501z"/>
	<path d="M30.381,96.373c0.123,0.155,0.258,0.277,0.404,0.368s0.332,0.136,0.556,0.136c0.097,0,0.193-0.01,0.292-0.031
		s0.188-0.057,0.269-0.104s0.144-0.107,0.191-0.18c0.049-0.072,0.072-0.159,0.072-0.26c0-0.102-0.022-0.185-0.067-0.248
		c-0.046-0.064-0.105-0.119-0.181-0.164c-0.074-0.046-0.16-0.081-0.256-0.108c-0.096-0.026-0.194-0.051-0.296-0.072
		c-0.176-0.037-0.344-0.079-0.504-0.128c-0.16-0.048-0.3-0.11-0.42-0.188s-0.216-0.178-0.288-0.3
		c-0.072-0.123-0.108-0.28-0.108-0.473c0-0.181,0.04-0.341,0.12-0.479s0.187-0.254,0.32-0.344c0.133-0.091,0.282-0.16,0.448-0.208
		c0.165-0.049,0.336-0.072,0.512-0.072c0.267,0,0.513,0.053,0.74,0.16c0.227,0.106,0.403,0.279,0.531,0.52l-0.52,0.344
		c-0.08-0.133-0.186-0.241-0.316-0.323c-0.131-0.083-0.289-0.124-0.476-0.124c-0.085,0-0.172,0.011-0.26,0.031
		c-0.088,0.021-0.167,0.054-0.236,0.097s-0.127,0.097-0.172,0.164c-0.046,0.066-0.068,0.143-0.068,0.228
		c0,0.08,0.025,0.148,0.076,0.204c0.051,0.056,0.12,0.105,0.208,0.148c0.088,0.042,0.189,0.08,0.304,0.111
		c0.115,0.032,0.233,0.059,0.356,0.08c0.165,0.032,0.322,0.073,0.472,0.124s0.28,0.119,0.393,0.204
		c0.111,0.085,0.199,0.192,0.264,0.32s0.096,0.285,0.096,0.472c0,0.214-0.042,0.395-0.128,0.544
		c-0.085,0.149-0.198,0.271-0.34,0.364c-0.142,0.093-0.302,0.161-0.479,0.204c-0.179,0.042-0.361,0.063-0.549,0.063
		c-0.319,0-0.596-0.049-0.827-0.147c-0.232-0.099-0.441-0.281-0.629-0.548L30.381,96.373z"/>
	<path d="M37.054,96.678c-0.225,0.288-0.47,0.489-0.736,0.604c-0.267,0.115-0.576,0.172-0.928,0.172
		c-0.294,0-0.558-0.052-0.792-0.155c-0.235-0.104-0.434-0.244-0.597-0.421c-0.162-0.176-0.287-0.384-0.376-0.623
		c-0.088-0.24-0.132-0.496-0.132-0.769c0-0.288,0.048-0.553,0.145-0.796c0.096-0.242,0.229-0.45,0.399-0.624
		c0.171-0.173,0.374-0.308,0.608-0.404c0.234-0.096,0.49-0.144,0.768-0.144c0.262,0,0.502,0.044,0.721,0.132
		s0.406,0.216,0.563,0.384s0.278,0.374,0.364,0.616c0.085,0.243,0.128,0.519,0.128,0.828v0.2h-3.024
		c0.011,0.16,0.05,0.313,0.116,0.46s0.153,0.274,0.26,0.384c0.107,0.109,0.232,0.196,0.376,0.26
		c0.145,0.064,0.302,0.096,0.473,0.096c0.271,0,0.501-0.048,0.688-0.144s0.354-0.237,0.504-0.424L37.054,96.678z M36.518,95.15
		c-0.011-0.32-0.115-0.576-0.312-0.768c-0.197-0.192-0.469-0.288-0.815-0.288s-0.627,0.096-0.84,0.288
		c-0.214,0.191-0.342,0.447-0.385,0.768H36.518z"/>
</g>
<g>
	<path d="M11.914,68.444c-0.112-0.182-0.262-0.313-0.448-0.396c-0.187-0.083-0.382-0.124-0.584-0.124
		c-0.149,0-0.296,0.019-0.44,0.056c-0.144,0.037-0.273,0.094-0.388,0.168c-0.114,0.075-0.207,0.173-0.276,0.296
		s-0.104,0.267-0.104,0.432c0,0.129,0.02,0.242,0.06,0.341s0.105,0.188,0.196,0.268s0.213,0.154,0.368,0.224
		c0.154,0.069,0.344,0.139,0.568,0.208c0.218,0.069,0.43,0.145,0.636,0.225c0.205,0.08,0.387,0.181,0.544,0.304
		s0.282,0.276,0.376,0.46c0.093,0.185,0.14,0.415,0.14,0.692c0,0.282-0.056,0.527-0.168,0.735s-0.26,0.38-0.443,0.517
		c-0.185,0.136-0.396,0.237-0.637,0.304s-0.487,0.1-0.744,0.1c-0.165,0-0.33-0.015-0.496-0.044
		c-0.165-0.029-0.323-0.074-0.476-0.136s-0.295-0.142-0.428-0.24c-0.134-0.099-0.248-0.22-0.344-0.363l0.575-0.473
		c0.123,0.208,0.294,0.365,0.513,0.473c0.219,0.106,0.45,0.159,0.695,0.159c0.145,0,0.29-0.021,0.437-0.063s0.278-0.105,0.396-0.188
		c0.117-0.082,0.214-0.185,0.288-0.308c0.075-0.123,0.112-0.264,0.112-0.424c0-0.176-0.029-0.318-0.088-0.428
		s-0.149-0.204-0.272-0.284c-0.122-0.08-0.277-0.152-0.464-0.216c-0.187-0.064-0.405-0.139-0.656-0.225
		c-0.202-0.063-0.389-0.137-0.56-0.22s-0.318-0.184-0.444-0.304c-0.125-0.12-0.224-0.265-0.296-0.433s-0.107-0.369-0.107-0.604
		c0-0.272,0.053-0.51,0.159-0.712c0.107-0.203,0.251-0.372,0.433-0.509c0.181-0.136,0.387-0.238,0.616-0.308
		c0.229-0.069,0.469-0.104,0.72-0.104c0.32,0,0.612,0.049,0.876,0.147s0.5,0.271,0.708,0.517L11.914,68.444z"/>
	<path d="M13.529,69.364h0.624v0.544h0.017c0.17-0.202,0.369-0.359,0.596-0.472s0.476-0.168,0.748-0.168
		c0.293,0,0.562,0.049,0.804,0.147c0.243,0.1,0.449,0.236,0.62,0.412c0.171,0.177,0.304,0.384,0.4,0.624
		c0.096,0.24,0.144,0.502,0.144,0.784c0,0.283-0.048,0.544-0.144,0.784c-0.097,0.24-0.229,0.448-0.396,0.624
		s-0.366,0.313-0.596,0.412s-0.475,0.147-0.736,0.147c-0.336,0-0.631-0.073-0.884-0.22c-0.254-0.146-0.438-0.326-0.556-0.54h-0.017
		v2.488h-0.624V69.364z M14.153,71.236c0,0.197,0.031,0.38,0.092,0.548c0.062,0.168,0.151,0.315,0.269,0.44s0.257,0.224,0.42,0.296
		c0.162,0.072,0.345,0.107,0.548,0.107s0.386-0.035,0.548-0.107c0.163-0.072,0.303-0.171,0.42-0.296s0.207-0.272,0.269-0.44
		c0.061-0.168,0.092-0.351,0.092-0.548s-0.031-0.38-0.092-0.548c-0.062-0.168-0.151-0.314-0.269-0.44
		c-0.117-0.125-0.257-0.224-0.42-0.296c-0.162-0.071-0.345-0.107-0.548-0.107s-0.386,0.036-0.548,0.107
		c-0.163,0.072-0.303,0.171-0.42,0.296c-0.117,0.126-0.207,0.272-0.269,0.44C14.185,70.856,14.153,71.039,14.153,71.236z"/>
	<path d="M18.233,71.236c0-0.293,0.051-0.56,0.152-0.8s0.24-0.446,0.416-0.62c0.176-0.173,0.387-0.308,0.632-0.404
		c0.245-0.096,0.512-0.144,0.8-0.144s0.555,0.048,0.8,0.144c0.246,0.097,0.456,0.231,0.633,0.404c0.176,0.174,0.314,0.38,0.416,0.62
		c0.101,0.24,0.151,0.507,0.151,0.8s-0.051,0.561-0.151,0.8c-0.102,0.24-0.24,0.447-0.416,0.62
		c-0.177,0.174-0.387,0.309-0.633,0.404c-0.245,0.096-0.512,0.144-0.8,0.144s-0.555-0.048-0.8-0.144s-0.456-0.23-0.632-0.404
		c-0.176-0.173-0.314-0.38-0.416-0.62C18.284,71.797,18.233,71.529,18.233,71.236z M18.905,71.236c0,0.197,0.031,0.38,0.093,0.548
		c0.061,0.168,0.15,0.315,0.268,0.44s0.257,0.224,0.42,0.296s0.346,0.107,0.548,0.107c0.203,0,0.386-0.035,0.548-0.107
		c0.163-0.072,0.303-0.171,0.421-0.296c0.117-0.125,0.206-0.272,0.268-0.44s0.092-0.351,0.092-0.548s-0.03-0.38-0.092-0.548
		s-0.15-0.314-0.268-0.44c-0.118-0.125-0.258-0.224-0.421-0.296c-0.162-0.071-0.345-0.107-0.548-0.107
		c-0.202,0-0.385,0.036-0.548,0.107c-0.163,0.072-0.303,0.171-0.42,0.296c-0.117,0.126-0.207,0.272-0.268,0.44
		C18.937,70.856,18.905,71.039,18.905,71.236z"/>
	<path d="M23.201,70.252c0-0.17-0.005-0.33-0.016-0.479s-0.016-0.285-0.016-0.408h0.592c0,0.102,0.003,0.203,0.008,0.304
		c0.005,0.102,0.008,0.206,0.008,0.312h0.017c0.042-0.091,0.103-0.179,0.18-0.264c0.077-0.086,0.169-0.162,0.276-0.229
		c0.106-0.066,0.227-0.12,0.359-0.16c0.134-0.04,0.277-0.06,0.433-0.06c0.042,0,0.085,0.003,0.128,0.008
		c0.042,0.006,0.085,0.016,0.128,0.032l-0.04,0.632c-0.107-0.032-0.219-0.048-0.336-0.048c-0.384,0-0.663,0.124-0.836,0.372
		c-0.174,0.248-0.261,0.588-0.261,1.02v1.824h-0.624V70.252z"/>
	<path d="M28.065,69.892h-1.104v1.872c0,0.122,0.002,0.235,0.008,0.34c0.005,0.104,0.026,0.194,0.063,0.271
		c0.037,0.078,0.094,0.14,0.168,0.185c0.075,0.045,0.182,0.067,0.32,0.067c0.091,0,0.184-0.01,0.28-0.031
		c0.096-0.021,0.187-0.054,0.271-0.097l0.024,0.568c-0.106,0.048-0.226,0.083-0.356,0.104c-0.131,0.021-0.255,0.031-0.372,0.031
		c-0.224,0-0.402-0.029-0.535-0.088c-0.134-0.059-0.238-0.141-0.312-0.248c-0.074-0.106-0.124-0.238-0.147-0.396
		c-0.024-0.157-0.036-0.332-0.036-0.524v-2.056h-0.816v-0.528h0.816V68.3h0.624v1.063h1.104V69.892z"/>
	<path d="M28.913,72.124c0.123,0.155,0.258,0.277,0.404,0.368s0.332,0.136,0.556,0.136c0.097,0,0.193-0.01,0.292-0.031
		s0.188-0.057,0.269-0.104s0.144-0.107,0.191-0.18c0.049-0.072,0.072-0.159,0.072-0.26c0-0.102-0.022-0.185-0.067-0.248
		c-0.046-0.064-0.105-0.119-0.181-0.164c-0.074-0.046-0.16-0.081-0.256-0.108c-0.096-0.026-0.194-0.051-0.296-0.072
		c-0.176-0.037-0.344-0.079-0.504-0.128c-0.16-0.048-0.3-0.11-0.42-0.188s-0.216-0.178-0.288-0.3
		c-0.072-0.123-0.108-0.28-0.108-0.473c0-0.181,0.04-0.341,0.12-0.479s0.187-0.254,0.32-0.344c0.133-0.091,0.282-0.16,0.448-0.208
		c0.165-0.049,0.336-0.072,0.512-0.072c0.267,0,0.513,0.053,0.74,0.16c0.227,0.106,0.403,0.279,0.531,0.52l-0.52,0.344
		c-0.08-0.133-0.186-0.241-0.316-0.323c-0.131-0.083-0.289-0.124-0.476-0.124c-0.085,0-0.172,0.011-0.26,0.031
		c-0.088,0.021-0.167,0.054-0.236,0.097s-0.127,0.097-0.172,0.164c-0.046,0.066-0.068,0.143-0.068,0.228
		c0,0.08,0.025,0.148,0.076,0.204s0.12,0.105,0.208,0.148c0.088,0.042,0.189,0.08,0.304,0.111c0.115,0.032,0.233,0.059,0.356,0.08
		c0.165,0.032,0.322,0.073,0.472,0.124s0.28,0.119,0.393,0.204c0.111,0.085,0.199,0.192,0.264,0.32s0.096,0.285,0.096,0.472
		c0,0.214-0.042,0.395-0.128,0.544c-0.085,0.149-0.198,0.271-0.34,0.364c-0.142,0.093-0.302,0.161-0.479,0.204
		c-0.179,0.042-0.361,0.063-0.549,0.063c-0.319,0-0.596-0.049-0.827-0.147c-0.232-0.099-0.441-0.281-0.629-0.548L28.913,72.124z"/>
</g>
<rect x="43.172" y="8.992" fill="#F26529" width="32.661" height="11.344"/>
<rect x="43.172" y="25.687" fill="#F26529" width="25.994" height="11.344"/>
<rect x="43.172" y="84.646" fill="#F26529" width="1.92" height="11.344"/>
<rect x="43.172" y="45.14" fill="#F26529" width="4.901" height="11.344"/>
<g>
	<path fill="#808080" d="M82.696,14.36h0.612v0.468h-0.612V15.8h-0.504v-0.972h-1.8V14.27l1.686-2.718h0.618V14.36z M82.192,12.139
		H82.18l-1.356,2.22h1.368V12.139z"/>
	<path fill="#808080" d="M84.352,15.115c0.1,0,0.185,0.035,0.255,0.105c0.07,0.07,0.105,0.155,0.105,0.255
		c0,0.1-0.037,0.185-0.111,0.255c-0.074,0.07-0.157,0.105-0.249,0.105c-0.092,0-0.175-0.035-0.249-0.105
		c-0.074-0.07-0.111-0.155-0.111-0.255c0-0.1,0.035-0.185,0.105-0.255C84.167,15.151,84.252,15.115,84.352,15.115z"/>
	<path fill="#808080" d="M87.346,15.8h-0.504v-3.6H86.83l-0.762,0.642l-0.3-0.366l1.14-0.924h0.438V15.8z"/>
	<path fill="#808080" d="M90.682,15.8h-0.504v-3.6h-0.012l-0.762,0.642l-0.3-0.366l1.14-0.924h0.438V15.8z"/>
	<path fill="#808080" d="M94.018,15.8h-0.504v-3.6h-0.012l-0.762,0.642l-0.3-0.366l1.14-0.924h0.438V15.8z"/>
</g>
<g>
	<path fill="#808080" d="M75.507,31.047h0.156c0.104,0,0.213-0.008,0.327-0.024c0.114-0.016,0.218-0.05,0.312-0.102
		c0.094-0.052,0.172-0.127,0.234-0.225c0.062-0.098,0.093-0.227,0.093-0.387c0-0.216-0.067-0.387-0.201-0.513
		c-0.134-0.126-0.309-0.189-0.525-0.189c-0.18,0-0.336,0.04-0.468,0.12c-0.132,0.08-0.236,0.198-0.312,0.354l-0.486-0.186
		c0.104-0.24,0.267-0.42,0.489-0.54c0.222-0.12,0.469-0.18,0.741-0.18c0.168,0,0.329,0.024,0.483,0.072s0.289,0.118,0.405,0.21
		c0.116,0.092,0.208,0.207,0.276,0.345c0.068,0.138,0.102,0.299,0.102,0.483c0,0.224-0.067,0.425-0.201,0.603
		c-0.134,0.178-0.309,0.301-0.525,0.369v0.012c0.136,0.024,0.257,0.068,0.363,0.132c0.106,0.064,0.197,0.143,0.273,0.237
		c0.076,0.094,0.134,0.201,0.174,0.321c0.04,0.12,0.06,0.246,0.06,0.378c0,0.204-0.038,0.382-0.114,0.534
		c-0.076,0.152-0.178,0.28-0.306,0.384c-0.128,0.104-0.277,0.182-0.447,0.234c-0.17,0.052-0.349,0.078-0.537,0.078
		c-0.324,0-0.606-0.07-0.846-0.21c-0.24-0.14-0.414-0.368-0.522-0.684l0.51-0.168c0.072,0.228,0.174,0.39,0.306,0.486
		c0.132,0.096,0.316,0.144,0.552,0.144c0.12,0,0.232-0.02,0.336-0.06s0.195-0.097,0.273-0.171c0.078-0.074,0.14-0.162,0.186-0.264
		c0.046-0.102,0.069-0.215,0.069-0.339c0-0.156-0.031-0.287-0.093-0.393c-0.062-0.106-0.144-0.19-0.246-0.252
		c-0.102-0.062-0.217-0.107-0.345-0.135c-0.128-0.028-0.258-0.042-0.39-0.042h-0.156V31.047z"/>
	<path fill="#808080" d="M78.452,32.811c0.1,0,0.185,0.035,0.255,0.105c0.07,0.07,0.105,0.155,0.105,0.255
		c0,0.1-0.037,0.185-0.111,0.255c-0.074,0.07-0.157,0.105-0.249,0.105c-0.092,0-0.175-0.035-0.249-0.105
		c-0.074-0.07-0.111-0.155-0.111-0.255c0-0.1,0.035-0.185,0.105-0.255C78.267,32.846,78.352,32.811,78.452,32.811z"/>
	<path fill="#808080" d="M80.51,31.047h0.156c0.104,0,0.213-0.008,0.327-0.024c0.114-0.016,0.218-0.05,0.312-0.102
		c0.094-0.052,0.172-0.127,0.234-0.225c0.062-0.098,0.093-0.227,0.093-0.387c0-0.216-0.067-0.387-0.201-0.513
		c-0.134-0.126-0.309-0.189-0.525-0.189c-0.18,0-0.336,0.04-0.468,0.12c-0.132,0.08-0.236,0.198-0.312,0.354l-0.486-0.186
		c0.104-0.24,0.267-0.42,0.489-0.54c0.222-0.12,0.469-0.18,0.741-0.18c0.168,0,0.329,0.024,0.483,0.072s0.289,0.118,0.405,0.21
		c0.116,0.092,0.208,0.207,0.276,0.345c0.068,0.138,0.102,0.299,0.102,0.483c0,0.224-0.067,0.425-0.201,0.603
		c-0.134,0.178-0.309,0.301-0.525,0.369v0.012c0.136,0.024,0.257,0.068,0.363,0.132c0.106,0.064,0.197,0.143,0.273,0.237
		c0.076,0.094,0.134,0.201,0.174,0.321c0.04,0.12,0.06,0.246,0.06,0.378c0,0.204-0.038,0.382-0.114,0.534
		c-0.076,0.152-0.178,0.28-0.306,0.384c-0.128,0.104-0.277,0.182-0.447,0.234c-0.17,0.052-0.349,0.078-0.537,0.078
		c-0.324,0-0.606-0.07-0.846-0.21c-0.24-0.14-0.414-0.368-0.522-0.684l0.51-0.168c0.072,0.228,0.174,0.39,0.306,0.486
		c0.132,0.096,0.316,0.144,0.552,0.144c0.12,0,0.232-0.02,0.336-0.06s0.195-0.097,0.273-0.171c0.078-0.074,0.14-0.162,0.186-0.264
		c0.046-0.102,0.069-0.215,0.069-0.339c0-0.156-0.031-0.287-0.093-0.393c-0.062-0.106-0.144-0.19-0.246-0.252
		c-0.102-0.062-0.217-0.107-0.345-0.135c-0.128-0.028-0.258-0.042-0.39-0.042H80.51V31.047z"/>
	<path fill="#808080" d="M84.734,31.725l-0.012-0.012c-0.08,0.044-0.173,0.076-0.279,0.096s-0.203,0.03-0.291,0.03
		c-0.184,0-0.355-0.032-0.513-0.096c-0.158-0.064-0.294-0.155-0.408-0.273c-0.114-0.118-0.203-0.258-0.267-0.42
		c-0.064-0.162-0.096-0.343-0.096-0.543c0-0.208,0.036-0.394,0.108-0.558s0.172-0.303,0.3-0.417
		c0.128-0.114,0.279-0.202,0.453-0.264s0.361-0.093,0.561-0.093s0.387,0.031,0.561,0.093s0.325,0.15,0.453,0.264
		c0.128,0.114,0.228,0.253,0.3,0.417c0.072,0.164,0.108,0.35,0.108,0.558c0,0.124-0.01,0.238-0.03,0.342s-0.048,0.204-0.084,0.3
		c-0.036,0.096-0.079,0.189-0.129,0.279c-0.05,0.09-0.103,0.181-0.159,0.273l-1.128,1.794h-0.588L84.734,31.725z M84.29,31.407
		c0.128,0,0.248-0.021,0.36-0.063c0.112-0.042,0.209-0.102,0.291-0.18s0.147-0.172,0.195-0.282c0.048-0.11,0.072-0.235,0.072-0.375
		c0-0.136-0.024-0.26-0.072-0.372c-0.048-0.112-0.113-0.207-0.195-0.285s-0.179-0.138-0.291-0.18
		c-0.112-0.042-0.232-0.063-0.36-0.063s-0.248,0.021-0.36,0.063c-0.112,0.042-0.209,0.102-0.291,0.18s-0.147,0.173-0.195,0.285
		c-0.048,0.112-0.072,0.236-0.072,0.372c0,0.14,0.024,0.265,0.072,0.375c0.048,0.11,0.113,0.204,0.195,0.282s0.179,0.138,0.291,0.18
		C84.042,31.386,84.162,31.407,84.29,31.407z"/>
	<path fill="#808080" d="M88.07,31.725l-0.012-0.012c-0.08,0.044-0.173,0.076-0.279,0.096s-0.203,0.03-0.291,0.03
		c-0.184,0-0.355-0.032-0.513-0.096c-0.158-0.064-0.294-0.155-0.408-0.273c-0.114-0.118-0.203-0.258-0.267-0.42
		c-0.064-0.162-0.096-0.343-0.096-0.543c0-0.208,0.036-0.394,0.108-0.558s0.172-0.303,0.3-0.417
		c0.128-0.114,0.279-0.202,0.453-0.264s0.361-0.093,0.561-0.093s0.387,0.031,0.561,0.093s0.325,0.15,0.453,0.264
		c0.128,0.114,0.228,0.253,0.3,0.417c0.072,0.164,0.108,0.35,0.108,0.558c0,0.124-0.01,0.238-0.03,0.342s-0.048,0.204-0.084,0.3
		c-0.036,0.096-0.079,0.189-0.129,0.279c-0.05,0.09-0.103,0.181-0.159,0.273l-1.128,1.794H86.93L88.07,31.725z M87.626,31.407
		c0.128,0,0.248-0.021,0.36-0.063c0.112-0.042,0.209-0.102,0.291-0.18s0.147-0.172,0.195-0.282c0.048-0.11,0.072-0.235,0.072-0.375
		c0-0.136-0.024-0.26-0.072-0.372c-0.048-0.112-0.113-0.207-0.195-0.285s-0.179-0.138-0.291-0.18
		c-0.112-0.042-0.232-0.063-0.36-0.063s-0.248,0.021-0.36,0.063c-0.112,0.042-0.209,0.102-0.291,0.18s-0.147,0.173-0.195,0.285
		c-0.048,0.112-0.072,0.236-0.072,0.372c0,0.14,0.024,0.265,0.072,0.375c0.048,0.11,0.113,0.204,0.195,0.282s0.179,0.138,0.291,0.18
		C87.378,31.386,87.498,31.407,87.626,31.407z"/>
</g>
<g>
	<path fill="#808080" d="M54.978,51.025h0.612v0.468h-0.612v0.972h-0.504v-0.972h-1.8v-0.558l1.686-2.718h0.618V51.025z
		 M54.474,48.804h-0.012l-1.356,2.22h1.368V48.804z"/>
	<path fill="#808080" d="M57.024,50.016h0.156c0.104,0,0.213-0.008,0.327-0.024c0.114-0.016,0.218-0.05,0.312-0.102
		c0.094-0.052,0.172-0.127,0.234-0.225c0.062-0.098,0.093-0.227,0.093-0.387c0-0.216-0.067-0.387-0.201-0.513
		c-0.134-0.126-0.309-0.189-0.525-0.189c-0.18,0-0.336,0.04-0.468,0.12c-0.132,0.08-0.236,0.198-0.312,0.354l-0.486-0.186
		c0.104-0.24,0.267-0.42,0.489-0.54c0.222-0.12,0.469-0.18,0.741-0.18c0.168,0,0.329,0.024,0.483,0.072s0.289,0.118,0.405,0.21
		c0.116,0.092,0.208,0.207,0.276,0.345c0.068,0.138,0.102,0.299,0.102,0.483c0,0.224-0.067,0.425-0.201,0.603
		c-0.134,0.178-0.309,0.301-0.525,0.369v0.012c0.136,0.024,0.257,0.068,0.363,0.132c0.106,0.064,0.197,0.143,0.273,0.237
		c0.076,0.094,0.134,0.201,0.174,0.321c0.04,0.12,0.06,0.246,0.06,0.378c0,0.204-0.038,0.382-0.114,0.534
		c-0.076,0.152-0.178,0.28-0.306,0.384c-0.128,0.104-0.277,0.182-0.447,0.234c-0.17,0.052-0.349,0.078-0.537,0.078
		c-0.324,0-0.606-0.07-0.846-0.21c-0.24-0.14-0.414-0.368-0.522-0.684l0.51-0.168c0.072,0.228,0.174,0.39,0.306,0.486
		c0.132,0.096,0.316,0.144,0.552,0.144c0.12,0,0.232-0.02,0.336-0.06s0.195-0.097,0.273-0.171c0.078-0.074,0.14-0.162,0.186-0.264
		c0.046-0.102,0.069-0.215,0.069-0.339c0-0.156-0.031-0.287-0.093-0.393s-0.144-0.19-0.246-0.252
		c-0.102-0.062-0.217-0.107-0.345-0.135c-0.128-0.028-0.258-0.042-0.39-0.042h-0.156V50.016z"/>
	<path fill="#808080" d="M61.98,48.685h-1.734l-0.018,1.146c0.08-0.04,0.169-0.067,0.267-0.081c0.098-0.014,0.191-0.021,0.279-0.021
		c0.204,0,0.389,0.035,0.555,0.105c0.166,0.07,0.309,0.168,0.429,0.294s0.212,0.274,0.276,0.444s0.096,0.355,0.096,0.555
		c0,0.212-0.037,0.405-0.111,0.579c-0.074,0.174-0.176,0.322-0.306,0.444c-0.13,0.122-0.284,0.217-0.462,0.285
		c-0.178,0.068-0.371,0.102-0.579,0.102c-0.324,0-0.585-0.07-0.783-0.21c-0.198-0.14-0.355-0.328-0.471-0.564l0.504-0.192
		c0.072,0.16,0.177,0.289,0.315,0.387c0.138,0.098,0.297,0.147,0.477,0.147c0.128,0,0.247-0.023,0.357-0.069
		c0.11-0.046,0.206-0.112,0.288-0.198s0.147-0.189,0.195-0.309s0.072-0.254,0.072-0.402c0-0.156-0.027-0.294-0.081-0.414
		c-0.054-0.12-0.128-0.221-0.222-0.303c-0.094-0.082-0.205-0.144-0.333-0.186s-0.266-0.063-0.414-0.063
		c-0.144,0-0.292,0.025-0.444,0.075c-0.152,0.05-0.292,0.113-0.42,0.189l0.042-2.208h2.226V48.685z"/>
</g>
<g>
	<path fill="#808080" d="M52.162,90.531h0.612v0.468h-0.612v0.972h-0.504v-0.972h-1.8v-0.558l1.686-2.719h0.618V90.531z
		 M51.658,88.31h-0.012l-1.356,2.221h1.368V88.31z"/>
	<path fill="#808080" d="M53.212,89.846c0-0.239,0.02-0.489,0.06-0.75c0.04-0.26,0.114-0.497,0.222-0.711
		c0.108-0.214,0.255-0.39,0.441-0.527c0.186-0.139,0.425-0.207,0.717-0.207s0.531,0.068,0.717,0.207
		c0.186,0.138,0.333,0.313,0.441,0.527c0.108,0.214,0.182,0.451,0.222,0.711c0.04,0.261,0.06,0.511,0.06,0.75
		c0,0.24-0.02,0.49-0.06,0.75c-0.04,0.261-0.114,0.497-0.222,0.711c-0.108,0.215-0.255,0.391-0.441,0.528
		c-0.186,0.138-0.425,0.207-0.717,0.207s-0.531-0.069-0.717-0.207s-0.333-0.313-0.441-0.528c-0.108-0.214-0.182-0.45-0.222-0.711
		C53.232,90.337,53.212,90.087,53.212,89.846z M53.716,89.846c0,0.104,0.004,0.221,0.012,0.349c0.008,0.128,0.023,0.257,0.045,0.387
		s0.054,0.257,0.096,0.381s0.098,0.234,0.168,0.33c0.07,0.096,0.155,0.173,0.255,0.231c0.1,0.058,0.22,0.087,0.36,0.087
		s0.26-0.029,0.36-0.087c0.1-0.059,0.185-0.136,0.255-0.231c0.07-0.096,0.126-0.206,0.168-0.33s0.074-0.251,0.096-0.381
		s0.037-0.259,0.045-0.387c0.008-0.128,0.012-0.244,0.012-0.349c0-0.104-0.004-0.22-0.012-0.348
		c-0.008-0.128-0.023-0.257-0.045-0.387s-0.054-0.258-0.096-0.382c-0.042-0.123-0.098-0.233-0.168-0.329
		c-0.07-0.097-0.155-0.174-0.255-0.231s-0.22-0.087-0.36-0.087s-0.26,0.029-0.36,0.087c-0.1,0.058-0.185,0.135-0.255,0.231
		c-0.07,0.096-0.126,0.206-0.168,0.329c-0.042,0.124-0.074,0.252-0.096,0.382s-0.037,0.259-0.045,0.387
		C53.72,89.627,53.716,89.743,53.716,89.846z"/>
</g>
<polygon fill="#808080" points="149.652,104.991 43.673,104.991 43.673,7.133 42.673,7.133 42.673,105.991 149.652,105.991 "/>
</svg>
