<?xml version="1.0" encoding="utf-8"?>
<!-- Generator: Adobe Illustrator 23.0.3, SVG Export Plug-In . SVG Version: 6.00 Build 0)  -->
<svg version="1.1" id="Layer_1" xmlns="http://www.w3.org/2000/svg" xmlns:xlink="http://www.w3.org/1999/xlink" x="0px" y="0px"
	 viewBox="0 0 745 93" style="enable-background:new 0 0 745 93;" xml:space="preserve">
<style type="text/css">
	.st0{fill:none;}
	.st1{fill-rule:evenodd;clip-rule:evenodd;fill:#231F20;}
</style>
<g>
	<rect x="17.5" y="21.5" class="st0" width="55.75" height="59.99"/>
</g>
<rect x="58.78" y="49.38" class="st1" width="10.35" height="6"/>
<rect x="40.22" y="49.38" class="st1" width="10.35" height="6"/>
<rect x="21.72" y="49.38" class="st1" width="10.35" height="6"/>
<g>
	<rect x="73.25" y="21.5" class="st0" width="55.75" height="59.99"/>
</g>
<rect x="114.53" y="49.38" class="st1" width="10.35" height="6"/>
<rect x="95.97" y="49.38" class="st1" width="10.35" height="6"/>
<rect x="77.47" y="49.38" class="st1" width="10.35" height="6"/>
<g>
	<rect x="129" y="21.5" class="st0" width="55.75" height="59.99"/>
</g>
<rect x="170.28" y="49.38" class="st1" width="10.35" height="6"/>
<rect x="151.72" y="49.38" class="st1" width="10.35" height="6"/>
<rect x="133.22" y="49.38" class="st1" width="10.35" height="6"/>
<g>
	<rect x="184.75" y="21.5" class="st0" width="55.75" height="59.99"/>
</g>
<rect x="226.03" y="49.38" class="st1" width="10.35" height="6"/>
<rect x="207.47" y="49.38" class="st1" width="10.35" height="6"/>
<rect x="188.97" y="49.38" class="st1" width="10.35" height="6"/>
<g>
	<g>
		<g>
			<rect x="475" y="22" class="st0" width="55.75" height="59.99"/>
		</g>
		<rect x="516.28" y="49.88" class="st1" width="10.35" height="6"/>
		<rect x="497.72" y="49.88" class="st1" width="10.35" height="6"/>
		<rect x="479.22" y="49.88" class="st1" width="10.35" height="6"/>
	</g>
	<g>
		<g>
			<rect x="530.75" y="22" class="st0" width="55.75" height="59.99"/>
		</g>
		<rect x="572.03" y="49.88" class="st1" width="10.35" height="6"/>
		<rect x="553.47" y="49.88" class="st1" width="10.35" height="6"/>
		<rect x="534.97" y="49.88" class="st1" width="10.35" height="6"/>
	</g>
	<g>
		<g>
			<rect x="586.5" y="22" class="st0" width="55.75" height="59.99"/>
		</g>
		<rect x="627.78" y="49.88" class="st1" width="10.35" height="6"/>
		<rect x="609.22" y="49.88" class="st1" width="10.35" height="6"/>
		<rect x="590.72" y="49.88" class="st1" width="10.35" height="6"/>
	</g>
	<g>
		<g>
			<rect x="642.25" y="22" class="st0" width="55.75" height="59.99"/>
		</g>
		<rect x="683.53" y="49.88" class="st1" width="10.35" height="6"/>
		<rect x="664.97" y="49.88" class="st1" width="10.35" height="6"/>
		<rect x="646.47" y="49.88" class="st1" width="10.35" height="6"/>
	</g>
</g>
<polygon points="698,74.63 698,29.37 720.63,52 "/>
<g>
	<path d="M297.18,59.67h-2.35v-16.8h-0.06l-3.56,3l-1.4-1.71l5.32-4.31h2.04V59.67z"/>
	<path d="M311.68,51.94h6.86v2.02h-6.86V51.94z"/>
	<path d="M340.83,42.03h-8.09l-0.08,5.35c0.37-0.19,0.79-0.31,1.25-0.38s0.89-0.1,1.3-0.1c0.95,0,1.81,0.16,2.59,0.49
		c0.77,0.33,1.44,0.78,2,1.37c0.56,0.59,0.99,1.28,1.29,2.07c0.3,0.79,0.45,1.66,0.45,2.59c0,0.99-0.17,1.89-0.52,2.7
		c-0.35,0.81-0.82,1.5-1.43,2.07c-0.61,0.57-1.33,1.01-2.16,1.33c-0.83,0.32-1.73,0.48-2.7,0.48c-1.51,0-2.73-0.33-3.65-0.98
		c-0.92-0.65-1.66-1.53-2.2-2.63l2.35-0.9c0.34,0.75,0.83,1.35,1.47,1.81c0.64,0.46,1.39,0.69,2.23,0.69c0.6,0,1.15-0.11,1.67-0.32
		c0.51-0.21,0.96-0.52,1.34-0.92c0.38-0.4,0.69-0.88,0.91-1.44c0.22-0.56,0.34-1.19,0.34-1.88c0-0.73-0.13-1.37-0.38-1.93
		c-0.25-0.56-0.6-1.03-1.04-1.41c-0.44-0.38-0.96-0.67-1.55-0.87c-0.6-0.2-1.24-0.29-1.93-0.29c-0.67,0-1.36,0.12-2.07,0.35
		s-1.36,0.53-1.96,0.88l0.2-10.3h10.39V42.03z"/>
	<path d="M358.05,51.13l-7.39-11.28h3l5.57,8.96l5.74-8.96h2.83l-7.39,11.28v8.54h-2.35V51.13z"/>
	<path d="M378.21,57.29c-0.78,1.01-1.64,1.71-2.58,2.11c-0.93,0.4-2.02,0.6-3.25,0.6c-1.03,0-1.95-0.18-2.77-0.55
		c-0.82-0.36-1.52-0.85-2.09-1.47c-0.57-0.62-1.01-1.34-1.32-2.18c-0.31-0.84-0.46-1.74-0.46-2.69c0-1.01,0.17-1.94,0.5-2.79
		c0.34-0.85,0.8-1.58,1.4-2.18c0.6-0.61,1.31-1.08,2.13-1.41c0.82-0.34,1.72-0.5,2.69-0.5c0.91,0,1.75,0.15,2.52,0.46
		s1.42,0.76,1.97,1.34c0.55,0.59,0.97,1.31,1.27,2.16c0.3,0.85,0.45,1.82,0.45,2.9v0.7H368.1c0.04,0.56,0.17,1.1,0.41,1.61
		c0.23,0.51,0.54,0.96,0.91,1.34s0.81,0.69,1.32,0.91c0.5,0.22,1.05,0.34,1.65,0.34c0.95,0,1.75-0.17,2.41-0.5s1.24-0.83,1.76-1.48
		L378.21,57.29z M376.33,51.94c-0.04-1.12-0.4-2.02-1.09-2.69c-0.69-0.67-1.64-1.01-2.86-1.01s-2.19,0.34-2.94,1.01
		c-0.75,0.67-1.19,1.57-1.34,2.69H376.33z"/>
	<path d="M381.9,48.24c0.67-0.69,1.47-1.2,2.39-1.53c0.92-0.33,1.86-0.49,2.81-0.49c1.94,0,3.34,0.46,4.2,1.37s1.29,2.31,1.29,4.17
		v5.63c0,0.37,0.02,0.76,0.06,1.16c0.04,0.4,0.08,0.77,0.14,1.11h-2.1c-0.08-0.3-0.12-0.63-0.13-0.99
		c-0.01-0.36-0.01-0.69-0.01-0.97h-0.06c-0.43,0.67-1,1.22-1.72,1.65c-0.72,0.43-1.58,0.64-2.59,0.64c-0.67,0-1.3-0.08-1.89-0.25
		s-1.1-0.42-1.54-0.74c-0.44-0.33-0.79-0.73-1.05-1.22c-0.26-0.49-0.39-1.05-0.39-1.68c0-1.08,0.28-1.93,0.84-2.55
		c0.56-0.62,1.25-1.07,2.09-1.37c0.83-0.3,1.73-0.49,2.69-0.56c0.96-0.07,1.84-0.11,2.65-0.11h0.84v-0.39
		c0-0.95-0.29-1.67-0.85-2.16s-1.37-0.73-2.39-0.73c-0.71,0-1.4,0.12-2.09,0.35c-0.68,0.23-1.28,0.59-1.81,1.08L381.9,48.24z
		 M388.23,53.37c-1.4,0-2.51,0.2-3.33,0.59c-0.82,0.39-1.23,1.04-1.23,1.93c0,0.82,0.28,1.4,0.83,1.75
		c0.55,0.35,1.24,0.52,2.06,0.52c0.63,0,1.19-0.11,1.67-0.32c0.48-0.21,0.87-0.5,1.19-0.85c0.32-0.35,0.56-0.77,0.73-1.25
		s0.26-0.98,0.28-1.53v-0.84H388.23z"/>
	<path d="M396.6,49.67c0-0.6-0.02-1.16-0.06-1.68s-0.06-1-0.06-1.43h2.07c0,0.35,0.01,0.71,0.03,1.06c0.02,0.35,0.03,0.72,0.03,1.09
		h0.06c0.15-0.32,0.36-0.62,0.63-0.92c0.27-0.3,0.59-0.56,0.97-0.8c0.37-0.23,0.79-0.42,1.26-0.56s0.97-0.21,1.51-0.21
		c0.15,0,0.3,0.01,0.45,0.03c0.15,0.02,0.3,0.06,0.45,0.11l-0.14,2.21c-0.37-0.11-0.77-0.17-1.18-0.17c-1.34,0-2.32,0.43-2.93,1.3
		c-0.61,0.87-0.91,2.06-0.91,3.57v6.38h-2.18V49.67z"/>
	<path d="M406.74,56.22c0.43,0.54,0.9,0.97,1.41,1.29s1.16,0.48,1.95,0.48c0.34,0,0.68-0.04,1.02-0.11c0.34-0.07,0.66-0.2,0.94-0.36
		c0.28-0.17,0.5-0.38,0.67-0.63s0.25-0.56,0.25-0.91s-0.08-0.64-0.24-0.87c-0.16-0.22-0.37-0.42-0.63-0.57
		c-0.26-0.16-0.56-0.28-0.9-0.38c-0.34-0.09-0.68-0.18-1.04-0.25c-0.62-0.13-1.2-0.28-1.76-0.45c-0.56-0.17-1.05-0.39-1.47-0.66
		c-0.42-0.27-0.76-0.62-1.01-1.05c-0.25-0.43-0.38-0.98-0.38-1.65c0-0.63,0.14-1.19,0.42-1.68c0.28-0.49,0.65-0.89,1.12-1.2
		s0.99-0.56,1.57-0.73c0.58-0.17,1.18-0.25,1.79-0.25c0.93,0,1.8,0.19,2.59,0.56c0.79,0.37,1.41,0.98,1.86,1.82l-1.82,1.2
		c-0.28-0.47-0.65-0.84-1.11-1.13c-0.46-0.29-1.01-0.43-1.67-0.43c-0.3,0-0.6,0.04-0.91,0.11c-0.31,0.07-0.58,0.19-0.83,0.34
		c-0.24,0.15-0.44,0.34-0.6,0.57c-0.16,0.23-0.24,0.5-0.24,0.8c0,0.28,0.09,0.52,0.27,0.71c0.18,0.2,0.42,0.37,0.73,0.52
		c0.31,0.15,0.66,0.28,1.06,0.39s0.82,0.21,1.25,0.28c0.58,0.11,1.13,0.26,1.65,0.43c0.52,0.18,0.98,0.42,1.37,0.71
		c0.39,0.3,0.7,0.67,0.92,1.12c0.22,0.45,0.34,1,0.34,1.65c0,0.75-0.15,1.38-0.45,1.9c-0.3,0.52-0.7,0.95-1.19,1.27
		c-0.49,0.33-1.05,0.56-1.68,0.71c-0.63,0.15-1.26,0.22-1.92,0.22c-1.12,0-2.09-0.17-2.9-0.52c-0.81-0.35-1.54-0.98-2.2-1.92
		L406.74,56.22z"/>
</g>
</svg>
